<?xml version="1.0" encoding="UTF-8"?>
<svg version="1.1" xmlns="http://www.w3.org/2000/svg" width="155" height="148">
<path d="M0 0 C51.15 0 102.3 0 155 0 C155 48.84 155 97.68 155 148 C103.85 148 52.7 148 0 148 C0 99.16 0 50.32 0 0 Z " fill="#040404" transform="translate(0,0)"/>
<path d="M0 0 C2.25780493 0.04972707 4.51342273 0.06151552 6.77172852 0.06713867 C26.65775367 0.21862416 40.41924879 7.15924842 54.81274414 20.98706055 C58.18364364 24.48637527 61.74746216 28.19258591 64.06274414 32.48706055 C63.73274414 33.47706055 63.40274414 34.46706055 63.06274414 35.48706055 C59.91343521 36.53683019 57.67459958 36.58837649 54.37524414 36.54956055 C53.38137695 36.54053711 52.38750977 36.53151367 51.36352539 36.5222168 C50.22463867 36.50481445 50.22463867 36.50481445 49.06274414 36.48706055 C49.06274414 33.51706055 49.06274414 30.54706055 49.06274414 27.48706055 C45.43274414 27.48706055 41.80274414 27.48706055 38.06274414 27.48706055 C38.06274414 30.45706055 38.06274414 33.42706055 38.06274414 36.48706055 C34.43274414 36.48706055 30.80274414 36.48706055 27.06274414 36.48706055 C27.06274414 33.84706055 27.06274414 31.20706055 27.06274414 28.48706055 C23.43274414 28.48706055 19.80274414 28.48706055 16.06274414 28.48706055 C16.06274414 31.12706055 16.06274414 33.76706055 16.06274414 36.48706055 C13.42274414 36.48706055 10.78274414 36.48706055 8.06274414 36.48706055 C8.06274414 33.84706055 8.06274414 31.20706055 8.06274414 28.48706055 C4.43274414 28.48706055 0.80274414 28.48706055 -2.93725586 28.48706055 C-2.93725586 31.12706055 -2.93725586 33.76706055 -2.93725586 36.48706055 C-5.57725586 36.48706055 -8.21725586 36.48706055 -10.93725586 36.48706055 C-10.93725586 33.84706055 -10.93725586 31.20706055 -10.93725586 28.48706055 C-14.56725586 28.48706055 -18.19725586 28.48706055 -21.93725586 28.48706055 C-21.93725586 31.12706055 -21.93725586 33.76706055 -21.93725586 36.48706055 C-25.23725586 36.48706055 -28.53725586 36.48706055 -31.93725586 36.48706055 C-31.93725586 33.84706055 -31.93725586 31.20706055 -31.93725586 28.48706055 C-35.56725586 28.48706055 -39.19725586 28.48706055 -42.93725586 28.48706055 C-42.93725586 30.79706055 -42.93725586 33.10706055 -42.93725586 35.48706055 C-47.88725586 35.48706055 -52.83725586 35.48706055 -57.93725586 35.48706055 C-55.29148966 30.19552814 -51.73841784 25.99525266 -47.93725586 21.48706055 C-47.41260742 20.8631543 -46.88795898 20.23924805 -46.34741211 19.59643555 C-40.93957172 13.70698087 -33.94564683 9.2568414 -26.93725586 5.48706055 C-26.10331299 5.03484131 -25.26937012 4.58262207 -24.41015625 4.11669922 C-16.20513792 0.1639525 -8.91503017 -0.19953938 0 0 Z " fill="#F9F9F9" transform="translate(73.937255859375,5.512939453125)"/>
<path d="M0 0 C2.64 0 5.28 0 8 0 C8 2.64 8 5.28 8 8 C11.63 8 15.26 8 19 8 C19 5.36 19 2.72 19 0 C22.63 0 26.26 0 30 0 C30 2.97 30 5.94 30 9 C33.63 9 37.26 9 41 9 C41 6.36 41 3.72 41 1 C45.29 1 49.58 1 54 1 C53.04961758 4.80152968 52.79471869 5.58996921 50.26171875 8.171875 C49.69501465 8.7501001 49.12831055 9.3283252 48.54443359 9.92407227 C47.93164551 10.52662842 47.31885742 11.12918457 46.6875 11.75 C46.05666504 12.37253662 45.42583008 12.99507324 44.77587891 13.63647461 C29.95709688 27.9322627 14.96559169 33.17739036 -5.375 33.1875 C-6.6640625 33.19974609 -7.953125 33.21199219 -9.28125 33.22460938 C-24.72706122 33.24839656 -36.07996958 28.78445927 -47.94140625 18.734375 C-50.08627646 16.86167352 -50.08627646 16.86167352 -53 15 C-53 14.34 -53 13.68 -53 13 C-53.66 13 -54.32 13 -55 13 C-56.9453125 10.8828125 -56.9453125 10.8828125 -59.125 8.125 C-59.84945312 7.22007813 -60.57390625 6.31515625 -61.3203125 5.3828125 C-63 3 -63 3 -63 1 C-59.04 1 -55.08 1 -51 1 C-51 3.64 -51 6.28 -51 9 C-47.37 9 -43.74 9 -40 9 C-40 6.36 -40 3.72 -40 1 C-36.7 1 -33.4 1 -30 1 C-30 3.64 -30 6.28 -30 9 C-26.37 9 -22.74 9 -19 9 C-19 6.36 -19 3.72 -19 1 C-16.36 1 -13.72 1 -11 1 C-11 3.31 -11 5.62 -11 8 C-7.37 8 -3.74 8 0 8 C0 5.36 0 2.72 0 0 Z " fill="#F9F9F9" transform="translate(82,109)"/>
<path d="M0 0 C0.33 0 0.66 0 1 0 C1 22.77 1 45.54 1 69 C-17.48 69 -35.96 69 -55 69 C-52.40528368 67.27018912 -50.44357527 66.35801336 -47.5625 65.3125 C-37.73342398 61.42092987 -23.96301462 54.92602924 -19 45 C-18.34 45 -17.68 45 -17 45 C-16.74863281 44.46117187 -16.49726563 43.92234375 -16.23828125 43.3671875 C-14.73342501 40.49039607 -12.96096244 37.84453513 -11.1875 35.125 C-4.2994297 24.1400117 -1.30406908 12.80712619 0 0 Z " fill="#FAFAFA" transform="translate(154,79)"/>
<path d="M0 0 C0.33 0 0.66 0 1 0 C1.02578125 0.72703125 1.0515625 1.4540625 1.078125 2.203125 C1.99078759 18.38214366 8.58261379 32.71164199 19 45 C19.50917969 45.66515625 20.01835937 46.3303125 20.54296875 47.015625 C28.0888482 56.48057996 38.903896 62.57222773 50 67 C50.928125 67.37253906 51.85625 67.74507813 52.8125 68.12890625 C53.534375 68.41636719 54.25625 68.70382813 55 69 C55 69.33 55 69.66 55 70 C36.85 70 18.7 70 0 70 C0 46.9 0 23.8 0 0 Z " fill="#FBFBFB" transform="translate(0,78)"/>
<path d="M0 0 C17.82 0 35.64 0 54 0 C52 2 52 2 48.5625 3.25 C37.36519579 7.36576587 29.32861186 13.70728733 21 22 C20.3296875 22.63550781 19.659375 23.27101563 18.96875 23.92578125 C9.63430644 33.4935859 3.33820932 48.85542743 1.8125 62 C1.73064453 62.67933594 1.64878906 63.35867187 1.56445312 64.05859375 C1.36738572 65.70468619 1.18237207 67.35221472 1 69 C0.67 69 0.34 69 0 69 C0 46.23 0 23.46 0 0 Z " fill="#FAFAFA" transform="translate(0,0)"/>
<path d="M0 0 C17.82 0 35.64 0 54 0 C54 22.11 54 44.22 54 67 C53.67 67 53.34 67 53 67 C52.91363281 66.29617187 52.82726562 65.59234375 52.73828125 64.8671875 C50.48335617 49.02064975 44.73221517 34.36875466 33.5390625 22.77734375 C32 21 32 21 32 19 C31.42894531 18.74605469 30.85789063 18.49210937 30.26953125 18.23046875 C27.73607996 16.85691082 25.85110637 15.21453047 23.6875 13.3125 C18.29287606 8.89212904 12.56093323 6.20645185 6.22265625 3.4453125 C3 2 3 2 0 0 Z " fill="#FBFBFB" transform="translate(101,0)"/>
<path d="M0 0 C4.95908034 2.79511801 7.04084327 6.0159036 8.53125 11.34765625 C10.06459224 20.02381776 9.67241246 28.90824373 6 37 C3.66819219 39.98762875 2.59013501 40.80328833 -1 42 C-5.05997304 42.26193374 -7.93559667 42.38705576 -11.75 41 C-16.28661548 36.96745291 -18.18699162 31.90482906 -18.56640625 25.90625 C-18.58607848 24.10427357 -18.584475 22.30194981 -18.5625 20.5 C-18.58634766 19.60152344 -18.61019531 18.70304687 -18.63476562 17.77734375 C-18.62079481 11.37870869 -17.2353373 6.88361093 -13 2 C-8.73171513 -0.84552325 -5.00735309 -0.73316385 0 0 Z " fill="#EEEEEE" transform="translate(67,52)"/>
<path d="M0 0 C5.74303623 0.04469289 8.68283464 1.18283464 12.75 5.25 C13.19187864 10.64091939 13.13794415 13.8196115 9.75 18.25 C9.09 18.91 8.43 19.57 7.75 20.25 C8.719375 21.03375 9.68875 21.8175 10.6875 22.625 C12.58962346 24.16288705 13.64629957 25.04259913 14.75 27.25 C15.44902913 34.35679612 15.44902913 34.35679612 12.5 38.125 C6.97539439 42.39401343 2.64227007 42.97726876 -4.25 42.25 C-7.93137204 40.68345871 -10.44896612 38.85206776 -12.25 35.25 C-12.780314 32.14387513 -12.87043958 29.34665825 -12.25 26.25 C-9.75 23.375 -9.75 23.375 -7.25 21.25 C-6.91781808 18.12197155 -6.91781808 18.12197155 -9.25 16 C-11.25 13.25 -11.25 13.25 -11.8125 9.75 C-11.11188382 5.39061041 -9.59172173 4.02118387 -6.25 1.25 C-4.535532 -0.464468 -2.33657934 0.03748523 0 0 Z " fill="#F0F0F0" transform="translate(29.25,51.75)"/>
<path d="M0 0 C7.59 0 15.18 0 23 0 C23 1.65 23 3.3 23 5 C17.06 5 11.12 5 5 5 C5.33 8.3 5.66 11.6 6 15 C6.66 14.67 7.32 14.34 8 14 C14.10685229 13.49109564 17.12959772 13.9224539 22 18 C25.59520985 21.95473084 25.50614081 25.13671282 25.34765625 30.3046875 C24.85309329 34.13893964 23.65089292 36.2095864 21 39 C16.2260585 42.33065686 11.6448898 42.75265197 6 42 C1.41676352 40.16670541 -0.60950437 37.24977002 -3 33 C-3 32.01 -3 31.02 -3 30 C-1.02 30 0.96 30 3 30 C3.66 31.98 4.32 33.96 5 36 C7.86145102 36.63048921 10.11267611 37.10674025 13 37 C16.1866503 35.2301177 16.1866503 35.2301177 18 32 C18.76618902 28.27219575 18.42391896 25.0597974 17 21.5 C14.29338257 19.47003692 12.2471584 19.60137958 8.9375 19.6640625 C6.68060065 19.92086647 6.68060065 19.92086647 4 22 C2.35 22 0.7 22 -1 22 C-0.67 14.74 -0.34 7.48 0 0 Z " fill="#EEEEEE" transform="translate(83,52)"/>
<path d="M0 0 C3.89159496 0.89182385 4.87868809 2.38768148 7 5.6875 C10.2709434 12.2293868 8.0994662 22.69507046 6.828125 29.69921875 C5.73610647 32.32109343 4.4301101 33.26806415 2 34.6875 C-1.0625 34.75 -1.0625 34.75 -4 33.6875 C-7.61689641 28.42423329 -7.48465115 23.33429515 -7.4375 17.1875 C-7.45748047 16.26324219 -7.47746094 15.33898437 -7.49804688 14.38671875 C-7.49359078 8.15710114 -7.10017161 1.62712266 0 0 Z " fill="#070707" transform="translate(62,55.3125)"/>
<path d="M0 0 C1.65 0 3.3 0 5 0 C5 13.86 5 27.72 5 42 C3.02 42 1.04 42 -1 42 C-1 31.77 -1 21.54 -1 11 C-1.99 11.33 -2.98 11.66 -4 12 C-6.33299825 12.03954234 -8.66708189 12.04401732 -11 12 C-11 10.68 -11 9.36 -11 8 C-10.37351562 7.84144531 -9.74703125 7.68289062 -9.1015625 7.51953125 C-3.84375314 6.2094023 -3.84375314 6.2094023 -0.4375 2.3125 C-0.293125 1.549375 -0.14875 0.78625 0 0 Z " fill="#EBEBEB" transform="translate(127,51)"/>
<path d="M0 0 C6.54545455 2.36363636 6.54545455 2.36363636 9 5 C9.5625 8.4375 9.5625 8.4375 9 12 C6.40973731 14.97118368 4.83940315 15.88008526 0.9375 16.4375 C-2.41948631 15.93752331 -3.76774103 15.562964 -6 13 C-7.1875 9.6875 -7.1875 9.6875 -7 6 C-4.95489181 3.57342085 -2.61530339 1.78049333 0 0 Z " fill="#0C0C0C" transform="translate(29,74)"/>
<path d="M0 0 C0.99 0.66 1.98 1.32 3 2 C3.51493064 5.97232205 3.58122939 8.13891941 1.3125 11.5 C-1 13 -1 13 -3.5625 12.9375 C-6.21650072 11.91673049 -7.44107407 11.37941326 -9 9 C-9.39365568 5.85075452 -9.52854531 3.88090884 -7.875 1.125 C-5.14747535 -0.51151479 -3.12026907 -0.32502803 0 0 Z " fill="#090909" transform="translate(33,56)"/>
</svg>
