<?xml version="1.0" encoding="UTF-8"?>
<svg version="1.1" xmlns="http://www.w3.org/2000/svg" width="600" height="600">
<path d="M0 0 C198 0 396 0 600 0 C600 198 600 396 600 600 C402 600 204 600 0 600 C0 402 0 204 0 0 Z " fill="#FEFEFE" transform="translate(0,0)"/>
<path d="M0 0 C5.28 0 10.56 0 16 0 C16.33 31.02 16.66 62.04 17 94 C-19 94 -19 94 -26 89 C-35.72198575 76.84751782 -34.89602417 60.74750371 -34 46 C-32.88150454 36.3323842 -28.28766152 29.32538227 -21 23 C-17.145093 20.63683862 -13.43079274 20.4291094 -9 21 C-5.68782037 22.34940652 -3.5207227 23.4792773 -1 26 C-0.67 17.42 -0.34 8.84 0 0 Z " fill="#291E1B" transform="translate(213,256)"/>
<path d="M0 0 C5.33658133 3.16859516 8.46600895 8.33861422 10.125 14.26171875 C10.58721128 18.57130213 10.61343616 22.86374141 10.63671875 27.1953125 C10.65466995 28.42838638 10.67262115 29.66146027 10.69111633 30.93190002 C10.74511955 34.85430525 10.77908421 38.77658945 10.8125 42.69921875 C10.84405677 45.36528012 10.88017204 48.0312556 10.91601562 50.69726562 C11.0008406 57.21864147 11.06923291 63.74003316 11.125 70.26171875 C6.10796821 70.360945 1.09151348 70.43335462 -3.92626953 70.48144531 C-5.63144894 70.50150244 -7.33656006 70.52875532 -9.04150391 70.56347656 C-11.49919524 70.61225736 -13.95597366 70.63474594 -16.4140625 70.65234375 C-17.17055084 70.67298889 -17.92703918 70.69363403 -18.70645142 70.71490479 C-23.88506126 70.71707693 -26.74183484 69.63826731 -30.875 66.26171875 C-32.51953125 64.2265625 -32.51953125 64.2265625 -33.6875 62.19921875 C-34.28498047 61.19181641 -34.28498047 61.19181641 -34.89453125 60.1640625 C-38.09579283 53.9528498 -37.90196132 45.64342373 -35.9375 39.01171875 C-32.92322226 32.25072194 -26.47011926 27.68373727 -19.875 24.76171875 C-15.06802528 23.04386571 -10.94300405 22.93475075 -5.875 23.26171875 C-6.55516629 16.63736108 -6.55516629 16.63736108 -9.875 11.13671875 C-16.0213348 9.34403777 -22.07123029 9.4477698 -27.875 12.26171875 C-28.865 12.26171875 -29.855 12.26171875 -30.875 12.26171875 C-30.875 8.96171875 -30.875 5.66171875 -30.875 2.26171875 C-20.44314106 -3.03971776 -11.15630776 -5.09542903 0 0 Z " fill="#281D1A" transform="translate(134.875,279.73828125)"/>
<path d="M0 0 C38.77142857 0 38.77142857 0 45.3125 6.1875 C50.03852975 14.06421626 50.4160693 21.66999758 50.29296875 30.69140625 C50.28872391 31.87725815 50.28447906 33.06311005 50.28010559 34.28489685 C50.26341433 38.04433626 50.22577888 41.80322467 50.1875 45.5625 C50.17244086 48.12303909 50.15875462 50.68358665 50.14648438 53.24414062 C50.11354195 59.4963036 50.06182507 65.74805862 50 72 C44.72 72 39.44 72 34 72 C33.970271 69.62312988 33.970271 69.62312988 33.93994141 67.19824219 C33.86391723 61.32389326 33.77519455 55.44979306 33.68261719 49.57568359 C33.64431434 47.03243924 33.6094638 44.48914048 33.578125 41.94580078 C33.53250338 38.29179423 33.47450322 34.63816273 33.4140625 30.984375 C33.40251129 29.84570984 33.39096008 28.70704468 33.37905884 27.53387451 C33.35918915 26.47307678 33.33931946 25.41227905 33.31884766 24.31933594 C33.30552399 23.38667908 33.29220032 22.45402222 33.2784729 21.49310303 C32.98458936 18.86203209 32.41992971 17.22296582 31 15 C26.78362979 12.89181489 21.69776176 13.39148015 17 13 C17 32.47 17 51.94 17 72 C11.72 72 6.44 72 1 72 C0.67 48.24 0.34 24.48 0 0 Z " fill="#2A201D" transform="translate(344,278)"/>
<path d="M0 0 C6.2640227 4.77258872 10.75451504 10.20833438 12.625 18 C12.95857943 21.84709759 12.91043932 25.64251978 12.8125 29.5 C12.750625 32.965 12.68875 36.43 12.625 40 C1.735 40 -9.155 40 -20.375 40 C-18.24181426 50.73173532 -18.24181426 50.73173532 -12.375 58 C-6.32995149 61.02252426 3.12930747 58.8518941 9.625 58 C9.625 61.63 9.625 65.26 9.625 69 C0.53176155 72.35750343 -10.62187959 74.55049045 -19.875 70.5 C-24.21056465 67.84576543 -27.32998186 64.00873399 -30.375 60 C-30.973125 59.21625 -31.57125 58.4325 -32.1875 57.625 C-37.47665152 45.93319138 -37.56992643 28.67551654 -33.3125 16.6875 C-30.83538674 11.30065087 -27.81888215 6.93186964 -23.375 3 C-22.86453125 2.54753906 -22.3540625 2.09507812 -21.828125 1.62890625 C-15.67378908 -2.77357662 -6.93125849 -2.05370622 0 0 Z " fill="#281E1B" transform="translate(529.375,279)"/>
<path d="M0 0 C5.7229609 5.11927304 10.15790876 12.1565561 10.65673828 19.94824219 C10.6964564 22.76068728 10.67415737 25.56258953 10.625 28.375 C10.58375 31.71625 10.5425 35.0575 10.5 38.5 C-0.39 38.5 -11.28 38.5 -22.5 38.5 C-21.19054715 48.27655382 -21.19054715 48.27655382 -16.5 55.5 C-9.90637898 59.58776505 -0.81252995 57.44355225 6.5 56.5 C6.5 60.13 6.5 63.76 6.5 67.5 C-3.09486719 70.98904262 -13.34546159 72.80383037 -23 68.5 C-31.40726647 63.56589935 -35.02489571 55.64933102 -37.5 46.5 C-38.02599713 42.2933597 -38.06208577 38.17226704 -38 33.9375 C-38.01546875 32.87853516 -38.0309375 31.81957031 -38.046875 30.72851562 C-37.99620024 20.44787313 -35.04643238 11.02351324 -27.609375 3.6171875 C-20.2855263 -3.0827778 -8.9151699 -6.27804903 0 0 Z " fill="#281E1B" transform="translate(300.5,280.5)"/>
<path d="M0 0 C1.2375 -0.01417969 2.475 -0.02835937 3.75 -0.04296875 C7 0.1875 7 0.1875 10 2.1875 C10.29296875 5.0078125 10.29296875 5.0078125 10.1875 8.3125 C10.14689453 9.95605469 10.14689453 9.95605469 10.10546875 11.6328125 C10.07066406 12.47585938 10.03585938 13.31890625 10 14.1875 C8.57107422 14.11789062 8.57107422 14.11789062 7.11328125 14.046875 C5.85902344 14.01078125 4.60476562 13.9746875 3.3125 13.9375 C2.07113281 13.89109375 0.82976563 13.8446875 -0.44921875 13.796875 C-4.59438143 14.2528885 -6.0991141 15.26029027 -9 18.1875 C-12.70318359 24.53581473 -13.20340372 29.82999672 -13.25 37 C-13.270625 37.78181641 -13.29125 38.56363281 -13.3125 39.36914062 C-13.36369068 47.02854578 -11.2552272 52.42370243 -6 58.1875 C-2.99686252 59.68906874 -0.20932478 59.28031204 3.125 59.25 C4.40632813 59.24097656 5.68765625 59.23195313 7.0078125 59.22265625 C7.99523437 59.21105469 8.98265625 59.19945312 10 59.1875 C10 63.1475 10 67.1075 10 71.1875 C2.85277491 74.04639004 -4.44785398 74.49419078 -11.92578125 72.34765625 C-20.03937557 68.69099842 -24.62892521 62.2780795 -28 54.1875 C-31.59789748 41.64816101 -31.51865161 28.18811815 -26 16.1875 C-20.15895617 6.15482628 -11.66345029 0.06074714 0 0 Z " fill="#2A201D" transform="translate(60,277.8125)"/>
<path d="M0 0 C1.31484375 0.00386719 2.6296875 0.00773437 3.984375 0.01171875 C7.25 0.3125 7.25 0.3125 9.25 2.3125 C9.4453125 5.1328125 9.4453125 5.1328125 9.375 8.4375 C9.35695313 9.53320312 9.33890625 10.62890625 9.3203125 11.7578125 C9.29710937 12.60085938 9.27390625 13.44390625 9.25 14.3125 C8.30898438 14.23128906 7.36796875 14.15007812 6.3984375 14.06640625 C-0.51584304 13.49957451 -0.51584304 13.49957451 -6.91015625 15.58984375 C-8.52470345 17.41085479 -9.64102923 19.1485533 -10.75 21.3125 C-11.08386719 21.89128906 -11.41773438 22.47007812 -11.76171875 23.06640625 C-15.57003072 31.04490599 -14.77200402 41.17925534 -12.125 49.375 C-10.01952276 54.28054492 -8.56955363 56.8604464 -3.75 59.3125 C0.61770215 59.69773237 4.87895539 59.60433532 9.25 59.3125 C9.25 63.2725 9.25 67.2325 9.25 71.3125 C2.35986943 74.06855223 -4.41605789 74.63873365 -11.609375 72.4375 C-20.00028983 68.57259378 -24.36800515 62.94620124 -27.98828125 54.62109375 C-31.22597183 44.80840075 -31.77510201 30.11952632 -28 20.4375 C-27.2946598 19.03906509 -26.54969319 17.65920554 -25.75 16.3125 C-25.1725 15.260625 -24.595 14.20875 -24 13.125 C-17.51441226 5.01801533 -10.67811321 -0.13716944 0 0 Z " fill="#281D1A" transform="translate(456.75,277.6875)"/>
<path d="M0 0 C3.64364023 3.30495054 5.28031343 5.49438163 5.56762695 10.44482422 C5.56684278 12.14831713 5.53903044 13.85195051 5.48828125 15.5546875 C5.48120651 16.45623566 5.47413177 17.35778381 5.46684265 18.28665161 C5.43897892 21.1502986 5.376257 24.0119497 5.3125 26.875 C5.28740669 28.82288832 5.26459533 30.77080745 5.24414062 32.71875 C5.18917868 37.4799291 5.10296295 42.23962683 5 47 C3.05368812 47.05398611 1.1069502 47.09278593 -0.83984375 47.125 C-1.92386475 47.14820313 -3.00788574 47.17140625 -4.12475586 47.1953125 C-7 47 -7 47 -9.5625 45 C-13.15181942 37.50924642 -14.48229122 31.8298849 -14.375 23.5625 C-14.38660156 22.67240234 -14.39820313 21.78230469 -14.41015625 20.86523438 C-14.37920038 13.80213731 -13.29097172 7.35463716 -9.25 1.4375 C-5.90874647 -0.69718975 -3.87934495 -0.68058683 0 0 Z " fill="#FAFAFA" transform="translate(208,291)"/>
<path d="M0 0 C13.53 0 27.06 0 41 0 C41 3.63 41 7.26 41 11 C27.47 11 13.94 11 0 11 C0 7.37 0 3.74 0 0 Z " fill="#E0012B" transform="translate(104,249)"/>
<path d="M0 0 C0 8.58 0 17.16 0 26 C-3.96 26 -7.92 26 -12 26 C-16.22850353 21.77149647 -17.14716253 19.91597965 -17.4375 14.25 C-17.39405894 9.29771915 -16.12201781 6.80104232 -12.64453125 3.33984375 C-8.34105376 -0.16631487 -5.6568288 0 0 0 Z " fill="#F1F1F1" transform="translate(130,313)"/>
<path d="M0 0 C2.8100346 1.79363911 4.50940468 3.01880935 6 6 C6.5098625 10.4188083 6.29172207 12.50771901 4 16.375 C0.80780476 19.16817084 -0.85984744 20.06158166 -5 20.3125 C-8.7000711 19.73436389 -10.45940763 17.6645237 -13 15 C-14.55024464 11.89951072 -14.28992015 9.42105782 -14 6 C-10.26747896 0.27680107 -6.74763808 -0.96948823 0 0 Z " fill="#E8E7E7" transform="translate(564,250)"/>
<path d="M0 0 C4.21764898 1.10462235 6.28675172 4.13544768 8.625 7.6875 C10.06803521 11.81045774 9.625 15.12139068 9.625 19.6875 C3.025 19.6875 -3.575 19.6875 -10.375 19.6875 C-9.09051724 8.12715517 -9.09051724 8.12715517 -4.5 2.3125 C-2.375 0.6875 -2.375 0.6875 0 0 Z " fill="#EEEDED" transform="translate(287.375,288.3125)"/>
<path d="M0 0 C3.9492814 3.98021572 5.30460401 7.9491157 5.3125 13.5 C5.209375 14.985 5.10625 16.47 5 18 C-1.27 18 -7.54 18 -14 18 C-14 9.92077663 -13.44305131 5.78735644 -8.125 -0.0625 C-4.85658726 -1.5044468 -3.33506959 -1.29319025 0 0 Z " fill="#EFEEEE" transform="translate(523,290)"/>
<path d="M0 0 C2.8100346 1.79363911 4.50940468 3.01880935 6 6 C6.5098625 10.4188083 6.29172207 12.50771901 4 16.375 C0.80780476 19.16817084 -0.85984744 20.06158166 -5 20.3125 C-8.7000711 19.73436389 -10.45940763 17.6645237 -13 15 C-14.55024464 11.89951072 -14.28992015 9.42105782 -14 6 C-10.26747896 0.27680107 -6.74763808 -0.96948823 0 0 Z M-9.69140625 3.2421875 C-11.34460529 5.46290263 -11.40246813 6.75318695 -11.375 9.5 C-11.38273438 10.2734375 -11.39046875 11.046875 -11.3984375 11.84375 C-10.90173068 14.53181041 -10.20656639 15.41247034 -8 17 C-6.05542688 17.4714296 -6.05542688 17.4714296 -4 17.375 C-3.319375 17.38273437 -2.63875 17.39046875 -1.9375 17.3984375 C0.61034606 16.87448529 1.47761182 16.0950296 3 14 C3.61350778 10.94904237 3.50241849 8.06589467 3 5 C1.5771736 2.74536751 1.5771736 2.74536751 -1 2 C-5.62115042 1.40623793 -5.62115042 1.40623793 -9.69140625 3.2421875 Z " fill="#4D4441" transform="translate(564,250)"/>
<path d="M0 0 C2.33294775 -0.04241723 4.66702567 -0.04092937 7 0 C8 1 8 1 8.0625 3.5625 C8.041875 4.366875 8.02125 5.17125 8 6 C7.34 6 6.68 6 6 6 C6.66 7.65 7.32 9.3 8 11 C7.01 10.67 6.02 10.34 5 10 C4.3125 7.9375 4.3125 7.9375 4 6 C3.34 6 2.68 6 2 6 C2 7.65 2 9.3 2 11 C1.34 11 0.68 11 0 11 C0 7.37 0 3.74 0 0 Z " fill="#7B7573" transform="translate(556,254)"/>
<path d="M0 0 C0.33 0 0.66 0 1 0 C1 3.3 1 6.6 1 10 C1.66 10 2.32 10 3 10 C3 8.35 3 6.7 3 5 C3.66 5 4.32 5 5 5 C5.99 7.31 6.98 9.62 8 12 C1.65492958 12.35915493 1.65492958 12.35915493 -0.9375 10.9375 C-2.59162584 7.92115289 -2.30575763 5.36333392 -2 2 C-1.34 1.34 -0.68 0.68 0 0 Z " fill="#DDDCDB" transform="translate(555,255)"/>
<path d="M0 0 C2.78388626 1.57039738 3.9758124 2.52855572 5.4375 5.375 C5.625 9.125 5.625 9.125 5.4375 12.375 C4.4475 12.045 3.4575 11.715 2.4375 11.375 C2.334375 10.26125 2.23125 9.1475 2.125 8 C1.898125 6.80375 1.67125 5.6075 1.4375 4.375 C-1.48015 2.4299 -3.18787285 1.92223683 -6.5625 1.375 C-4.01758237 -0.32161175 -3.0311038 -0.73929361 0 0 Z " fill="#574F4D" transform="translate(564.5625,250.625)"/>
<path d="M0 0 C3.625 0.25 3.625 0.25 5.5625 1.75 C5.913125 2.245 6.26375 2.74 6.625 3.25 C5.965 4.57 5.305 5.89 4.625 7.25 C4.295 5.93 3.965 4.61 3.625 3.25 C-1.69670494 2.95437633 -1.69670494 2.95437633 -6.375 5.25 C-3.97723048 0.29460967 -3.97723048 0.29460967 0 0 Z " fill="#D3D1D0" transform="translate(559.375,251.75)"/>
<path d="M0 0 C0.33 0 0.66 0 1 0 C1 3.63 1 7.26 1 11 C0.01 10.34 -0.98 9.68 -2 9 C-2.3125 5.5 -2.3125 5.5 -2 2 C-1.34 1.34 -0.68 0.68 0 0 Z " fill="#F8F8F7" transform="translate(555,255)"/>
<path d="M0 0 C0.33 1.32 0.66 2.64 1 4 C2.32 4 3.64 4 5 4 C5.66 5.98 6.32 7.96 7 10 C6.01 9.67 5.02 9.34 4 9 C3.3125 6.9375 3.3125 6.9375 3 5 C2.34 5 1.68 5 1 5 C1 6.65 1 8.3 1 10 C0.67 10 0.34 10 0 10 C0 6.7 0 3.4 0 0 Z " fill="#342B28" transform="translate(557,255)"/>
<path d="M0 0 C-0.804375 0.3403125 -0.804375 0.3403125 -1.625 0.6875 C-4.78500863 2.43382056 -7.2676983 4.6402849 -10 7 C-9.6875 4.625 -9.6875 4.625 -9 2 C-5.5647952 -0.29013653 -4.014669 -0.17842973 0 0 Z " fill="#382E2B" transform="translate(562,250)"/>
<path d="M0 0 C1.11375 0.556875 1.11375 0.556875 2.25 1.125 C2.25 2.115 2.25 3.105 2.25 4.125 C-0.72 3.135 -3.69 2.145 -6.75 1.125 C-2.75 -0.875 -2.75 -0.875 0 0 Z " fill="#4C4441" transform="translate(564.75,250.875)"/>
</svg>
