<?xml version="1.0" encoding="UTF-8"?>
<svg version="1.1" xmlns="http://www.w3.org/2000/svg" width="420" height="280">
<path d="M0 0 C106.26 0 212.52 0 322 0 C322 92.4 322 184.8 322 280 C215.74 280 109.48 280 0 280 C0 187.6 0 95.2 0 0 Z " fill="#021971" transform="translate(49,0)"/>
<path d="M0 0 C0.64609443 -0.00297112 1.29218885 -0.00594224 1.9578619 -0.0090034 C4.10872145 -0.01762998 6.25952495 -0.01919346 8.41040039 -0.02069092 C9.95818194 -0.02532318 11.50596235 -0.03034839 13.05374146 -0.03573608 C17.24786972 -0.04881812 21.44198201 -0.05529619 25.63612747 -0.05974674 C28.25773583 -0.06268275 30.87933987 -0.06678843 33.50094604 -0.07125092 C41.70753362 -0.08491145 49.91411127 -0.09458658 58.12070942 -0.09845281 C67.58733687 -0.10293767 77.05382023 -0.12051144 86.52040386 -0.1494534 C93.8445525 -0.17106722 101.16866057 -0.18115684 108.49284077 -0.18249393 C112.86482098 -0.18354167 117.23666547 -0.18944366 121.60861206 -0.20731354 C125.71922783 -0.22379025 129.82960574 -0.22595175 133.94024277 -0.21717453 C135.44708773 -0.21640408 136.95394547 -0.22074791 138.46075821 -0.23063278 C140.52115913 -0.24335498 142.58071776 -0.23747512 144.64111328 -0.22705078 C146.36884727 -0.22925062 146.36884727 -0.22925062 148.13148499 -0.2314949 C152.46688769 0.27413682 155.7271436 1.87670052 159.13305664 4.57794189 C161.65635396 7.89806994 161.44601257 11.72980499 161.44754028 15.75762939 C161.45036011 16.90167236 161.45317993 18.04571533 161.45608521 19.22442627 C161.45304886 21.100979 161.45304886 21.100979 161.44995117 23.01544189 C161.45130655 24.34942676 161.45308726 25.68341124 161.45526123 27.01739502 C161.45981925 30.63715533 161.4580527 34.25688714 161.45488214 37.87664795 C161.45235014 41.66510088 161.45469843 45.45355137 161.45626831 49.24200439 C161.45808754 55.60398802 161.45569014 61.96596003 161.45092773 68.32794189 C161.44548559 75.68290131 161.44724842 83.037833 161.45275414 90.39279175 C161.45729227 96.70795936 161.45793238 103.02311863 161.45531547 109.33828735 C161.45375656 113.10990859 161.45354839 116.8815168 161.45685196 120.65313721 C161.45974082 124.19896746 161.45773627 127.74476198 161.4519577 131.29058838 C161.45000492 133.21254426 161.4529754 135.13450316 161.45608521 137.05645752 C161.45326538 138.20050049 161.45044556 139.34454346 161.44754028 140.52325439 C161.44697474 142.01429688 161.44697474 142.01429688 161.44639778 143.53546143 C161.33250129 145.89318117 160.99319058 147.88641699 160.32055664 150.14044189 C159.66055664 150.14044189 159.00055664 150.14044189 158.32055664 150.14044189 C158.11430664 150.75919189 157.90805664 151.37794189 157.69555664 152.01544189 C155.72732152 155.05725981 153.78088601 155.22400943 150.32055664 156.14044189 C147.1130743 156.39212418 147.1130743 156.39212418 143.59642029 156.39440918 C142.94553674 156.39752916 142.2946532 156.40064914 141.62404591 156.40386367 C139.45695236 156.41180036 137.2901422 156.40553718 135.12304688 156.39923096 C133.56379025 156.40194272 132.00453491 156.4055047 130.44528198 156.40985107 C126.22019764 156.41895453 121.99521117 156.41543946 117.77012515 156.4090929 C113.34553184 156.40402324 108.9209468 156.40872696 104.49635315 156.41186523 C97.06770323 156.41550167 89.6390931 156.41071382 82.21044922 156.40118408 C73.6239403 156.39029614 65.03752633 156.39382886 56.4510197 156.40483689 C49.0750772 156.41391415 41.69916326 156.41519301 34.32321697 156.40995955 C29.91945118 156.40684279 25.51573001 156.40642255 21.11196709 156.41303253 C16.97265427 156.41881188 12.83346387 156.41479831 8.69416428 156.40324402 C7.17561992 156.40060076 5.65706525 156.40135683 4.13852501 156.40576935 C2.06478095 156.4112394 -0.00857149 156.40437334 -2.08229065 156.39440918 C-3.24240945 156.39365513 -4.40252825 156.39290108 -5.59780216 156.39212418 C-10.4231744 155.99802875 -14.0724225 154.36099623 -17.67944336 151.14044189 C-19.59158461 145.40401813 -20.12384312 137.62069821 -17.77319336 131.95684814 C-14.98512795 128.37346921 -11.95840759 127.18773549 -7.67944336 126.14044189 C-3.58255617 125.83858006 0.50566762 125.8395468 4.61230469 125.83746338 C6.4644458 125.82480438 6.4644458 125.82480438 8.35400391 125.81188965 C11.03046001 125.79497247 13.706651 125.7815945 16.3831234 125.77435112 C20.61452639 125.76283281 24.84577645 125.73736463 29.07710266 125.71003723 C35.76692172 125.66845605 42.4567482 125.63600693 49.14663488 125.60756308 C61.13619013 125.55650669 73.12568156 125.49442957 85.11512786 125.42222267 C89.32249434 125.39730541 93.52984054 125.37787231 97.73725355 125.36284053 C100.96385209 125.35025179 104.19041737 125.33157454 107.41699219 125.31402588 C108.58432388 125.31141251 109.75165558 125.30879913 110.95436096 125.30610657 C112.01841156 125.29920807 113.08246216 125.29230957 114.17875671 125.28520203 C115.1047401 125.28134711 116.03072348 125.2774922 116.98476696 125.27352047 C119.4768299 125.2337693 119.4768299 125.2337693 122.32055664 124.14044189 C125.1327939 119.45337979 125.47725733 115.09299088 125.49755859 109.75079346 C125.50741539 108.62583466 125.50741539 108.62583466 125.51747131 107.47814941 C125.53718367 104.99578752 125.54886294 102.51348611 125.55883789 100.03106689 C125.56291342 99.1820153 125.56698895 98.33296371 125.57118797 97.45818329 C125.59204098 92.96327458 125.60634542 88.46839631 125.61572266 83.97344971 C125.62677912 79.33866161 125.6611722 74.70435467 125.70089436 70.06973648 C125.7270836 66.49913664 125.73541658 62.92865099 125.73900414 59.35796356 C125.74386497 57.64998886 125.75546464 55.94201908 125.77404213 54.23413849 C125.79848115 51.83826465 125.79746029 49.44362968 125.79052734 47.04766846 C125.8033374 46.34819092 125.81614746 45.64871338 125.8293457 44.92803955 C125.77261077 39.52246386 124.42414235 36.42874767 121.32055664 32.14044189 C118.26994457 30.98741297 115.30774953 31.01789659 112.07196045 31.02259827 C111.00942551 31.02148041 109.94689056 31.02036255 108.85215759 31.01921082 C107.1112661 31.02471703 107.1112661 31.02471703 105.33520508 31.03033447 C102.79327392 31.02979178 100.25134276 31.02920477 97.70941162 31.02857971 C96.34703307 31.02990767 94.98465462 31.03135223 93.62227631 31.03290749 C89.40230232 31.0365455 85.1824177 31.02738938 80.96246338 31.01512146 C80.24946477 31.01309953 79.53646616 31.0110776 78.80186152 31.0089944 C77.3439737 31.00482583 75.88608597 31.00062308 74.42819834 30.99638689 C64.60694594 30.96827094 54.78588797 30.94809973 44.96459961 30.96539307 C38.33549785 30.97696998 31.70679832 30.9673049 25.07776856 30.93333548 C21.57294411 30.91621925 18.06884537 30.90983179 14.56401825 30.9294529 C10.65015231 30.95116583 6.7373233 30.92615415 2.82348633 30.89752197 C1.67098892 30.91131393 0.51849152 30.9251059 -0.66893005 30.9393158 C-7.26381143 30.84585999 -11.19952871 29.94476964 -16.27134323 25.6216383 C-19.92755321 21.7756298 -19.12558406 16.65523403 -19.08959961 11.64825439 C-18.59001459 7.37561297 -17.4902809 5.33595117 -14.57788086 2.27716064 C-10.26103511 -0.30761736 -4.89496149 0.01264158 0 0 Z " fill="#FAFAFC" transform="translate(170.679443359375,89.85955810546875)"/>
<path d="M0 0 C1.5742473 -0.00706369 3.14848781 -0.0158106 4.72271729 -0.02610779 C8.9852125 -0.04856155 13.24733569 -0.0456715 17.50986743 -0.03678632 C21.0734508 -0.03166696 24.63696485 -0.03897669 28.20054108 -0.04625839 C36.60983022 -0.06324472 45.01893784 -0.05970443 53.42822266 -0.04296875 C62.09266772 -0.02604782 70.75660895 -0.04188429 79.42099899 -0.07419163 C86.87092286 -0.10091422 94.32069015 -0.10815636 101.77065712 -0.09967655 C106.21540229 -0.09475519 110.65984438 -0.09691993 115.10455132 -0.11746407 C119.28513411 -0.13586333 123.46499403 -0.12981129 127.64553833 -0.10526466 C129.1757223 -0.10027018 130.70596175 -0.10371113 132.23610115 -0.11641312 C147.6451539 -0.23416317 147.6451539 -0.23416317 153.55297852 5.53344727 C156.81101972 10.42050907 156.11502898 15.82160938 155.55297852 21.53344727 C153.85990988 25.31029269 152.54340288 26.85795558 149.1697998 29.15882874 C143.88347048 31.16796484 138.91841373 30.9397844 133.30883789 30.90234375 C132.07889603 30.90611023 130.84895416 30.90987671 129.58174133 30.91375732 C126.91497135 30.92018648 124.24881433 30.92130929 121.58210754 30.91357231 C117.36245916 30.90195424 113.14308371 30.91418061 108.92346191 30.93019104 C98.4448611 30.96632358 87.96626734 30.97261538 77.48760986 30.97009277 C69.33853527 30.96838051 61.18968472 30.97552642 53.04067278 31.01007134 C48.84900179 31.02683946 44.65787801 31.02509395 40.46620941 31.00924861 C37.2431255 31.00207836 34.02016756 31.0206943 30.79711914 31.03515625 C29.06230034 31.020541 29.06230034 31.020541 27.29243469 31.00563049 C21.10589592 31.06109945 17.21264779 31.28631806 12.55297852 35.53344727 C11.03890075 38.56160279 11.39691231 41.70257759 11.3918457 45.02490234 C11.3868808 45.79744858 11.38191589 46.56999481 11.37680054 47.36595154 C11.36216506 49.92830285 11.3553742 52.49059223 11.34985352 55.05297852 C11.34410267 56.8317617 11.33834492 58.61054486 11.33258057 60.389328 C11.32206627 64.12267344 11.31622659 67.85599731 11.31274414 71.58935547 C11.3072622 76.37112863 11.28324247 81.15261664 11.25477219 85.93430042 C11.23613856 89.61033456 11.23093979 93.28630017 11.22940826 96.96237755 C11.22638222 98.72501876 11.21835532 100.48765879 11.20522308 102.25025368 C11.18814925 104.71832508 11.19004605 107.18570193 11.1965332 109.65380859 C11.18731842 110.38074921 11.17810364 111.10768982 11.16860962 111.85665894 C11.20493476 116.2731856 11.80848778 119.04664872 14.55297852 122.53344727 C17.65650834 125.34754724 19.64198809 125.90790197 23.80157471 125.90525818 C24.86410965 125.91201569 25.92664459 125.91877319 27.02137756 125.92573547 C28.18197189 125.9180162 29.34256622 125.91029694 30.53833008 125.90234375 C31.7647673 125.90611023 32.99120453 125.90987671 34.25480652 125.91375732 C36.9205151 125.92019787 39.5856128 125.92129265 42.25125885 125.91357231 C46.4712967 125.90197509 50.69106063 125.91416487 54.91107178 125.93019104 C65.39551134 125.96636593 75.87994461 125.97261969 86.36444092 125.97009277 C94.50831173 125.96837919 102.6519583 125.97557916 110.79576659 126.01007134 C114.98520792 126.02681568 119.17410144 126.02511341 123.36354017 126.00924861 C126.59242963 126.00205946 129.82119474 126.02070942 133.05004883 126.03515625 C134.77879494 126.020541 134.77879494 126.020541 136.54246521 126.00563049 C143.32745499 126.06614571 147.80634175 126.82728564 153.55297852 130.53344727 C156.95957788 135.6433463 156.33002423 141.58502837 155.55297852 147.53344727 C153.33313236 151.97313958 150.11604078 154.67309237 145.55297852 156.53344727 C142.56035709 156.78792286 142.56035709 156.78792286 138.99342346 156.79414368 C138.33608166 156.79796922 137.67873986 156.80179477 137.00147861 156.80573624 C134.80054614 156.81604865 132.5998754 156.81207753 130.39892578 156.80810547 C128.82025918 156.81245292 127.2415947 156.81763618 125.66293335 156.82359314 C121.37575739 156.83699071 117.08866954 156.83756098 112.80147672 156.83502984 C109.22286739 156.83396066 105.64427593 156.83884212 102.06567043 156.84363526 C93.62351932 156.85473302 85.18141269 156.85516631 76.73925781 156.84912109 C68.02892792 156.84307978 59.31875949 156.85539569 50.60845715 156.87669116 C43.13064276 156.89430141 35.6528798 156.90030944 28.17504543 156.89705342 C23.70862275 156.89523953 19.24231525 156.89788726 14.77591133 156.91176796 C10.57584754 156.92433236 6.37603567 156.92241544 2.1759758 156.90935707 C0.63485441 156.90698872 -0.90628463 156.90973525 -2.44738579 156.91798019 C-4.55204442 156.92842795 -6.65585469 156.9203639 -8.76048279 156.90766907 C-9.93794791 156.90783681 -11.11541304 156.90800455 -12.32855892 156.90817738 C-17.24169695 156.31779006 -19.67674891 154.49540473 -22.72915649 150.68339539 C-25.55868046 145.21845306 -24.98642406 139.13416764 -24.93286133 133.13427734 C-24.93500979 131.78014255 -24.93889134 130.42600958 -24.94436646 129.07188416 C-24.95402213 125.41080635 -24.93880632 121.75021965 -24.91846037 118.08920121 C-24.90083816 114.25272612 -24.90441539 110.41626501 -24.90518188 106.57975769 C-24.90331181 100.14146752 -24.88598435 93.70336647 -24.85864258 87.26513672 C-24.82715482 79.82316618 -24.81664793 72.38140232 -24.81811368 64.93936998 C-24.81946458 57.00919938 -24.80558689 49.07910836 -24.78722048 41.14896178 C-24.78295956 38.86578745 -24.78153838 36.58262596 -24.78074265 34.29944801 C-24.77873325 30.7132963 -24.76651964 27.12731799 -24.74641037 23.54122353 C-24.73778586 21.59784344 -24.73890299 19.65442778 -24.74029541 17.71102905 C-24.73176544 16.55449326 -24.72323547 15.39795746 -24.71444702 14.20637512 C-24.71109533 13.20149457 -24.70774364 12.19661402 -24.70429039 11.16128254 C-24.28410146 6.86932472 -23.08810974 5.06777391 -19.78746033 2.31678772 C-13.7756264 -0.83255704 -6.61078316 -0.03116036 0 0 Z " fill="#FAFAFC" transform="translate(112.447021484375,33.466552734375)"/>
</svg>
