<?xml version="1.0" encoding="UTF-8"?>
<svg version="1.1" xmlns="http://www.w3.org/2000/svg" width="640" height="480">
<path d="M0 0 C211.2 0 422.4 0 640 0 C640 158.4 640 316.8 640 480 C428.8 480 217.6 480 0 480 C0 321.6 0 163.2 0 0 Z " fill="#000000" transform="translate(0,0)"/>
<path d="M0 0 C211.2 0 422.4 0 640 0 C640 158.4 640 316.8 640 480 C428.8 480 217.6 480 0 480 C0 321.6 0 163.2 0 0 Z M268 24 C267.08621582 24.22993652 266.17243164 24.45987305 265.23095703 24.69677734 C240.9393625 30.98668445 216.3657147 41.23485684 196 56 C195.0821875 56.64582031 194.164375 57.29164062 193.21875 57.95703125 C158.9035256 82.39216997 133.62187829 113.76948438 116 152 C115.68981934 152.66773438 115.37963867 153.33546875 115.06005859 154.0234375 C109.53789903 166.14033617 106.20191536 179.1161502 103 192 C102.76974121 192.89106445 102.53948242 193.78212891 102.30224609 194.70019531 C94.85166002 224.74343616 96.091625 261.24571781 104 291 C104.22993652 291.92619141 104.45987305 292.85238281 104.69677734 293.80664062 C111.61494824 321.5968303 123.81962596 348.05958763 141 371 C141.43634766 371.59039062 141.87269531 372.18078125 142.32226562 372.7890625 C156.55698797 391.93740011 173.38993172 408.43195276 193 422 C193.97598145 422.680625 193.97598145 422.680625 194.97167969 423.375 C217.98950477 439.28520997 244.17252198 451.03226094 271.66738892 456.52947998 C273.23743451 456.84617996 274.80594247 457.17058969 276.37289429 457.5022583 C290.46260012 460.47194307 303.92857219 461.65850058 318.3125 461.5 C319.28802826 461.49512573 320.26355652 461.49025146 321.26864624 461.48522949 C336.51176949 461.39617673 351.10031013 460.43090962 366 457 C367.43611301 456.69621294 368.87230585 456.39280287 370.30859375 456.08984375 C374.25135159 455.21580973 378.1282067 454.14504855 382 453 C382.76103027 452.78037598 383.52206055 452.56075195 384.30615234 452.33447266 C415.53817168 443.16173602 443.89555621 427.0557209 467.78125 405.03125 C469.77015799 403.21041875 471.80682976 401.47912594 473.875 399.75 C508.19945823 369.62994328 531.4795041 322.95641584 538.60668945 278.34033203 C538.87463964 276.74593694 539.18223776 275.1578188 539.52416992 273.57763672 C541.69132403 262.83777511 541.43980404 251.90995375 541.4375 241 C541.43910126 239.39745865 541.43910126 239.39745865 541.44073486 237.76254272 C541.41599546 220.61283411 540.26110004 204.67091729 536 188 C535.66307129 186.59524414 535.66307129 186.59524414 535.31933594 185.16210938 C527.85547744 154.32887732 512.46428649 124.22154408 492 100 C491.54866699 99.45988281 491.09733398 98.91976562 490.63232422 98.36328125 C481.22901305 87.12025926 471.49617143 77.15101806 460 68 C459.20980469 67.34257813 458.41960937 66.68515625 457.60546875 66.0078125 C428.7195121 42.1517488 392.84650319 27.04340098 356 21 C354.99477295 20.83008545 353.9895459 20.6601709 352.95385742 20.48510742 C341.74157594 18.77613809 330.63616101 18.55989868 319.3125 18.5625 C318.32299347 18.5614325 317.33348694 18.56036499 316.31399536 18.55926514 C299.69272702 18.5850743 284.15838473 19.85296411 268 24 Z " fill="#FEFEFE" transform="translate(0,0)"/>
<path d="M0 0 C20.79 0 41.58 0 63 0 C59.6248118 10.12556459 59.6248118 10.12556459 58.01733398 14.17285156 C57.65454849 15.08971237 57.291763 16.00657318 56.91798401 16.95121765 C56.33789833 18.40622429 56.33789833 18.40622429 55.74609375 19.890625 C55.33298447 20.93237381 54.91987518 21.97412262 54.49424744 23.04743958 C53.14443444 26.44926616 51.79102886 29.84965038 50.4375 33.25 C49.49349192 35.62680803 48.54964625 38.00368058 47.60595703 40.38061523 C40.80653587 57.49764683 33.96807048 74.59902023 27.11791992 91.69580078 C22.68711696 102.75788687 18.29798714 113.83480493 13.95605469 124.93212891 C10.27678949 134.32496201 6.53261482 143.69119584 2.77603149 153.05328369 C-1.30818216 163.23340547 -5.35894118 173.42631518 -9.38671875 183.62890625 C-9.85446716 184.81290512 -10.32221558 185.99690399 -10.80413818 187.21678162 C-13.6287936 194.36663967 -13.6287936 194.36663967 -16.44769287 201.51876831 C-17.76603797 204.86766145 -19.08782858 208.21517778 -20.41015625 211.5625 C-20.9938221 213.04968285 -20.9938221 213.04968285 -21.58927917 214.56690979 C-24.19950015 221.16285687 -27.05643342 227.52415352 -30 234 C-51.78 234 -73.56 234 -96 234 C-94.12213538 227.74045127 -92.30345573 221.94127199 -89.734375 216.01171875 C-89.42426987 215.28304092 -89.11416473 214.5543631 -88.79466248 213.80360413 C-88.12969176 212.24172874 -87.46251961 210.68078903 -86.79330444 209.12072754 C-84.98669303 204.90729141 -83.19827507 200.68615424 -81.41015625 196.46484375 C-81.0425972 195.59771759 -80.67503815 194.73059143 -80.29634094 193.83718872 C-76.49544545 184.84754657 -72.83298397 175.80352727 -69.1875 166.75 C-64.53263846 155.19904171 -59.79677232 143.69286377 -54.91186523 132.23681641 C-51.78609477 124.89452691 -48.74693287 117.52075399 -45.75 110.125 C-41.41608621 99.43200842 -37.00720507 88.77231628 -32.5625 78.125 C-32.08259109 76.97525192 -32.08259109 76.97525192 -31.59298706 75.80227661 C-31.27347076 75.03680511 -30.95395447 74.27133362 -30.62475586 73.48266602 C-29.98420425 71.94808276 -29.34366059 70.41349619 -28.703125 68.87890625 C-28.3885585 68.1253334 -28.073992 67.37176056 -27.74989319 66.59535217 C-24.75715404 59.42334695 -21.7819234 52.24418942 -18.8125 45.0625 C-18.3371582 43.91305908 -17.86181641 42.76361816 -17.37207031 41.5793457 C-15.35904788 36.7102021 -13.34710616 31.84061267 -11.3359375 26.97070312 C-9.93198164 23.57113092 -8.52736841 20.1718309 -7.12240601 16.77267456 C-6.32883043 14.8520237 -5.53610468 12.93102358 -4.7434082 11.01000977 C-4.26734131 9.85815186 -3.79127441 8.70629395 -3.30078125 7.51953125 C-2.87966064 6.49964111 -2.45854004 5.47975098 -2.0246582 4.42895508 C-1.39372445 2.93332488 -0.72594588 1.45189176 0 0 Z " fill="#FEB61C" transform="translate(284,123)"/>
<path d="M0 0 C2.28101175 2.82746176 3.76385378 5.48368788 5.1015625 8.85546875 C5.50044678 9.8491748 5.89933105 10.84288086 6.31030273 11.86669922 C6.74415283 12.96256348 7.17800293 14.05842773 7.625 15.1875 C8.60665631 17.63209291 9.58963421 20.07611949 10.57421875 22.51953125 C10.83995193 23.18045776 11.10568512 23.84138428 11.37947083 24.52233887 C14.99603811 33.50180267 18.72295102 42.43575335 22.4375 51.375 C23.18050474 53.16475971 23.92342464 54.95455465 24.66625977 56.74438477 C26.11410809 60.23271447 27.56226739 63.72091475 29.01074219 67.20898438 C35.97311951 83.97613557 42.90383534 100.75581012 49.7857666 117.55612183 C55.25540859 130.90816756 60.75382354 144.24726467 66.3125 157.5625 C68.51246232 162.83627675 70.71137449 168.11049143 72.90985107 173.3848877 C73.67681301 175.22472036 74.44396034 177.06447574 75.21124268 178.9041748 C77.83843449 185.20436428 80.46039134 191.50669606 83.07650757 197.81149292 C83.93701295 199.88308445 84.79915581 201.95399661 85.66299438 204.02420044 C86.87076421 206.91932122 88.07275394 209.81677831 89.2734375 212.71484375 C89.63623306 213.58088226 89.99902863 214.44692078 90.37281799 215.33920288 C90.70531052 216.14499786 91.03780304 216.95079285 91.38037109 217.78100586 C91.67044037 218.47850449 91.96050964 219.17600311 92.2593689 219.89463806 C93 222 93 222 94 227 C72.22 227 50.44 227 28 227 C23.50053271 218.00106542 23.50053271 218.00106542 22.26757812 214.80419922 C21.98580719 214.0796051 21.70403625 213.35501099 21.41372681 212.60845947 C21.12250946 211.84821472 20.83129211 211.08796997 20.53125 210.3046875 C20.2144931 209.487724 19.89773621 208.6707605 19.57138062 207.82904053 C18.89505856 206.08386214 18.2204062 204.33803589 17.54730225 202.59161377 C15.7612936 197.95885784 13.96194296 193.33128367 12.1640625 188.703125 C11.8057132 187.77976349 11.44736389 186.85640198 11.07815552 185.90505981 C8.05658004 178.12623173 4.98334799 170.36956407 1.875 162.625 C1.40054443 161.44252686 0.92608887 160.26005371 0.43725586 159.04174805 C-0.53269777 156.6264246 -1.50316091 154.21130571 -2.47412109 151.79638672 C-4.1168936 147.71036591 -5.75622504 143.62296966 -7.39453125 139.53515625 C-7.68478683 138.81097504 -7.97504242 138.08679382 -8.27409363 137.34066772 C-9.74770204 133.6625009 -11.21899844 129.98343023 -12.6862793 126.30273438 C-13.11930611 125.2165834 -13.11930611 125.2165834 -13.56108093 124.10848999 C-14.14589761 122.64158646 -14.73062441 121.1746471 -15.31526184 119.70767212 C-17.1466677 115.11858273 -18.99751305 110.53780867 -20.86106873 105.96168518 C-22.09932596 102.91548063 -23.32733021 99.86520564 -24.55349731 96.81411743 C-25.13796955 95.36674812 -25.72698924 93.92120598 -26.32077026 92.47763062 C-27.14110031 90.48184385 -27.94526989 88.48024008 -28.74609375 86.4765625 C-29.20685303 85.34299316 -29.6676123 84.20942383 -30.14233398 83.04150391 C-31.6497906 77.69567568 -29.61842168 73.71181247 -27.6640625 68.6796875 C-27.42897476 68.07187439 -27.19388702 67.46406128 -26.95167542 66.83782959 C-26.18051598 64.84847773 -25.40305514 62.86166403 -24.625 60.875 C-24.08365749 59.4848955 -23.54239879 58.09475836 -23.0012207 56.70458984 C-17.81337228 43.41020757 -12.43649738 30.19451428 -7 17 C-6.25245247 15.18105192 -5.50504715 13.36204538 -4.7578125 11.54296875 C-3.17561563 7.69376067 -1.58947643 3.84620747 0 0 Z " fill="#FDFDFD" transform="translate(358,130)"/>
<path d="M0 0 C20.79 0 41.58 0 63 0 C59.625 10.125 59.625 10.125 58 14 C57 12 56 10 55 8 C55.639375 7.773125 56.27875 7.54625 56.9375 7.3125 C57.618125 6.879375 58.29875 6.44625 59 6 C59.33 4.35 59.66 2.7 60 1 C31.785 1.495 31.785 1.495 3 2 C2.34 3.32 1.68 4.64 1 6 C0.34 6 -0.32 6 -1 6 C-0.67 8.31 -0.34 10.62 0 13 C-0.60972656 13.19722656 -1.21945312 13.39445313 -1.84765625 13.59765625 C-4.98608532 15.64247664 -5.3203656 17.90828302 -6.4375 21.4375 C-8.27939181 27.04584301 -10.42833241 32.37292001 -12.984375 37.6953125 C-14.07059509 39.93743881 -14.07059509 39.93743881 -14.453125 42.2421875 C-14.63359375 42.82226562 -14.8140625 43.40234375 -15 44 C-16.485 44.495 -16.485 44.495 -18 45 C-15.20323372 35.95712237 -11.50022997 27.29600857 -7.875 18.5625 C-7.22239331 16.98253046 -6.57004739 15.40245318 -5.91796875 13.82226562 C-5.29711111 12.32021488 -4.6760257 10.81825827 -4.0546875 9.31640625 C-3.61719681 8.2586776 -3.61719681 8.2586776 -3.17086792 7.17958069 C-1.11852431 2.23704863 -1.11852431 2.23704863 0 0 Z " fill="#E8B638" transform="translate(284,123)"/>
<path d="M0 0 C0.66 0.33 1.32 0.66 2 1 C0.68 4.3 -0.64 7.6 -2 11 C6.57102328 10.93886312 15.14169083 10.86181178 23.71236992 10.76428509 C27.69185243 10.71950559 31.67123078 10.68026666 35.65087891 10.65356445 C39.48954551 10.6276064 43.32781285 10.58725852 47.16623306 10.53681374 C48.63264129 10.52009395 50.09911865 10.50861158 51.56560898 10.50238609 C53.61561968 10.49279979 55.66459712 10.46481019 57.71435547 10.43237305 C58.88239716 10.42126999 60.05043884 10.41016693 61.25387573 10.39872742 C62.16009674 10.26714737 63.06631775 10.13556732 64 10 C64.66 9.01 65.32 8.02 66 7 C66.042721 8.66611905 66.04063832 10.33382885 66 12 C65 13 65 13 62.29820251 13.12025452 C61.09241043 13.11803391 59.88661835 13.11581329 58.64428711 13.11352539 C57.98089828 13.11367142 57.31750946 13.11381744 56.63401794 13.1139679 C54.43176044 13.11326881 52.22958655 13.10547665 50.02734375 13.09765625 C48.50419664 13.09579206 46.98104893 13.09436816 45.457901 13.09336853 C41.44162349 13.08954346 37.42538192 13.07971328 33.40911865 13.06866455 C29.31376634 13.05845019 25.21840824 13.05387086 21.12304688 13.04882812 C13.08201472 13.038091 5.04101183 13.02101472 -3 13 C-3.79953138 9.71303767 -4.09658936 8.28976808 -3 5 C-2.34 5 -1.68 5 -1 5 C-0.67 3.35 -0.34 1.7 0 0 Z " fill="#492E04" transform="translate(190,346)"/>
<path d="M0 0 C1.38223691 4.14671072 -0.22374663 6.74850314 -1.82421875 10.59765625 C-2.12689163 11.34655624 -2.42956451 12.09545624 -2.7414093 12.86705017 C-3.71460395 15.26923595 -4.70078217 17.66584156 -5.6875 20.0625 C-6.33355446 21.65003597 -6.97874651 23.2379232 -7.62304688 24.82617188 C-8.85781464 27.8666701 -10.0972236 30.90519711 -11.34130859 33.94189453 C-13.25526818 38.61688253 -15.13645706 43.30469644 -17 48 C-17.33 48 -17.66 48 -18 48 C-17.35812082 42.86496656 -16.31727753 38.0056546 -15 33 C-14.34 33 -13.68 33 -13 33 C-13 32.01 -13 31.02 -13 30 C-13.66 30 -14.32 30 -15 30 C-15 28 -15 28 -13 26 C-13.185625 25.443125 -13.37125 24.88625 -13.5625 24.3125 C-14.25253202 20.66518791 -12.58578995 18.29844309 -11 15 C-10.01 15.33 -9.02 15.66 -8 16 C-8 16.99 -8 17.98 -8 19 C-7.29925156 15.846632 -7 13.27275026 -7 10 C-6.34 9.01 -5.68 8.02 -5 7 C-4.01 7 -3.02 7 -2 7 C-2 5.35 -2 3.7 -2 2 C-1.34 2 -0.68 2 0 2 C0 1.34 0 0.68 0 0 Z " fill="#F6B425" transform="translate(289,265)"/>
<path d="M0 0 C1.89162117 0.03037102 1.89162117 0.03037102 3.82145691 0.06135559 C5.1977933 0.09876533 6.57412068 0.13650817 7.95043945 0.17456055 C9.35860149 0.20259722 10.76679094 0.22928726 12.17500305 0.25468445 C15.87925897 0.32511196 19.58285976 0.41383338 23.28662109 0.50634766 C27.06691333 0.59754158 30.84753877 0.67146052 34.62817383 0.74682617 C42.04462425 0.89722153 49.46046752 1.06694135 56.8762207 1.2487793 C56.8762207 1.9087793 56.8762207 2.5687793 56.8762207 3.2487793 C36.0862207 3.2487793 15.2962207 3.2487793 -6.1237793 3.2487793 C-6.7837793 4.5687793 -7.4437793 5.8887793 -8.1237793 7.2487793 C-8.8112793 5.4362793 -8.8112793 5.4362793 -9.1237793 3.2487793 C-6.67568353 -0.36665467 -4.13367672 -0.09075937 0 0 Z " fill="#462C04" transform="translate(290.123779296875,119.751220703125)"/>
<path d="M0 0 C0.99 0.33 1.98 0.66 3 1 C1.35 4.63 -0.3 8.26 -2 12 C-23.78 12 -45.56 12 -68 12 C-67.01 8.7 -66.02 5.4 -65 2 C-64.01 2.33 -63.02 2.66 -62 3 C-62.66 4.65 -63.32 6.3 -64 8 C-64.66 8 -65.32 8 -66 8 C-66 8.99 -66 9.98 -66 11 C-45.54 11 -25.08 11 -4 11 C-3.67 9.68 -3.34 8.36 -3 7 C-2.34 7 -1.68 7 -1 7 C-0.67 4.69 -0.34 2.38 0 0 Z " fill="#E9B537" transform="translate(256,345)"/>
<path d="M0 0 C0.83407012 3.03873744 1.04236403 4.92658801 0.25 8 C0.01023438 8.99 0.01023438 8.99 -0.234375 10 C-1 12 -1 12 -2.47265625 13.921875 C-4.23026349 16.31329969 -4.89973407 18.39903759 -5.6875 21.25 C-6.06455078 22.58804688 -6.06455078 22.58804688 -6.44921875 23.953125 C-6.63097656 24.62859375 -6.81273437 25.3040625 -7 26 C-7.66 26 -8.32 26 -9 26 C-9 28.31 -9 30.62 -9 33 C-8.34 33 -7.68 33 -7 33 C-6.67 34.32 -6.34 35.64 -6 37 C-7.98 37 -9.96 37 -12 37 C-12.0825 37.78375 -12.165 38.5675 -12.25 39.375 C-13 42 -13 42 -15.046875 43.1640625 C-15.69140625 43.43992187 -16.3359375 43.71578125 -17 44 C-14.53872892 34.4378204 -10.60986213 25.46103817 -6.8125 16.375 C-6.15124584 14.78273759 -5.4904349 13.19029104 -4.83007812 11.59765625 C-3.22515434 7.72962881 -1.61425258 3.86414299 0 0 Z " fill="#FAB724" transform="translate(244,219)"/>
<path d="M0 0 C0.66 0.33 1.32 0.66 2 1 C2 3.31 2 5.62 2 8 C2.99 6.68 3.98 5.36 5 4 C6.5 5.1875 6.5 5.1875 8 7 C8.1875 9.6875 8.1875 9.6875 8 12 C8.66 12 9.32 12 10 12 C10 12.66 10 13.32 10 14 C5.38 14 0.76 14 -4 14 C-3.01 12.35 -2.02 10.7 -1 9 C-1.29369827 7.65737935 -1.6278958 6.32303717 -2 5 C-1.0625 2.25 -1.0625 2.25 0 0 Z " fill="#F7B324" transform="translate(194,340)"/>
<path d="M0 0 C0.33 0.99 0.66 1.98 1 3 C0.34 3 -0.32 3 -1 3 C-0.67 5.31 -0.34 7.62 0 10 C-0.60972656 10.19722656 -1.21945312 10.39445313 -1.84765625 10.59765625 C-4.98608532 12.64247664 -5.3203656 14.90828302 -6.4375 18.4375 C-8.27939181 24.04584301 -10.42833241 29.37292001 -12.984375 34.6953125 C-14.07059509 36.93743881 -14.07059509 36.93743881 -14.453125 39.2421875 C-14.63359375 39.82226562 -14.8140625 40.40234375 -15 41 C-16.485 41.495 -16.485 41.495 -18 42 C-15.51001021 34.0748712 -12.44905557 26.39691473 -9.3293457 18.70410156 C-8.42938807 16.47995224 -7.5398356 14.25180828 -6.65039062 12.0234375 C-6.07875562 10.60911995 -5.50651247 9.19504802 -4.93359375 7.78125 C-4.66896835 7.11468384 -4.40434296 6.44811768 -4.13169861 5.76135254 C-2.22866587 1.11433294 -2.22866587 1.11433294 0 0 Z " fill="#DFAE33" transform="translate(284,126)"/>
<path d="M0 0 C0.83407012 3.03873744 1.04236403 4.92658801 0.25 8 C0.01023438 8.99 0.01023438 8.99 -0.234375 10 C-1 12 -1 12 -2.47265625 13.921875 C-4.23026349 16.31329969 -4.89973407 18.39903759 -5.6875 21.25 C-5.93886719 22.14203125 -6.19023437 23.0340625 -6.44921875 23.953125 C-6.63097656 24.62859375 -6.81273437 25.3040625 -7 26 C-7.66 26 -8.32 26 -9 26 C-9.99 28.475 -9.99 28.475 -11 31 C-11.33 30.34 -11.66 29.68 -12 29 C-11.2438447 26.78889502 -10.38073337 24.61411005 -9.47265625 22.4609375 C-9.20488876 21.82008209 -8.93712128 21.17922668 -8.66123962 20.51895142 C-7.80224993 18.46783094 -6.93253219 16.42145763 -6.0625 14.375 C-5.47910677 12.98727783 -4.89641529 11.59926042 -4.31445312 10.2109375 C-2.88443646 6.8038252 -1.44476263 3.40088979 0 0 Z " fill="#DAA93C" transform="translate(244,219)"/>
<path d="M0 0 C0.66 0 1.32 0 2 0 C-0.11644743 6.64168611 -2.5673908 13.10461783 -5.1875 19.5625 C-5.55552734 20.47580078 -5.92355469 21.38910156 -6.30273438 22.33007812 C-7.19943546 24.55436264 -8.09855598 26.77763445 -9 29 C-10.46845625 24.59463124 -8.88884406 21.54093027 -7.4375 17.25 C-7.16808594 16.45078125 -6.89867187 15.6515625 -6.62109375 14.828125 C-6.41613281 14.22484375 -6.21117187 13.6215625 -6 13 C-5.34 13 -4.68 13 -4 13 C-3.87882812 12.31292969 -3.75765625 11.62585938 -3.6328125 10.91796875 C-3.38144531 9.56638672 -3.38144531 9.56638672 -3.125 8.1875 C-2.96257812 7.29417969 -2.80015625 6.40085938 -2.6328125 5.48046875 C-2 3 -2 3 0 0 Z " fill="#E8B636" transform="translate(333,153)"/>
<path d="M0 0 C0.66 0 1.32 0 2 0 C1.38965243 3.48576282 0.48391539 6.5871923 -0.84765625 9.86328125 C-1.20537109 10.74951172 -1.56308594 11.63574219 -1.93164062 12.54882812 C-2.49141602 13.9168457 -2.49141602 13.9168457 -3.0625 15.3125 C-3.43955078 16.24384766 -3.81660156 17.17519531 -4.20507812 18.13476562 C-5.13283125 20.42478917 -6.06458001 22.71309996 -7 25 C-7.33 25 -7.66 25 -8 25 C-7.52155996 20.85351967 -6.90162402 17.68439654 -5 14 C-4.61709538 12.00889599 -4.27395385 10.00899487 -4 8 C-3.34 8 -2.68 8 -2 8 C-1.855625 7.236875 -1.71125 6.47375 -1.5625 5.6875 C-1 3 -1 3 0 0 Z " fill="#E3B03A" transform="translate(269,313)"/>
<path d="M0 0 C0.66 0.33 1.32 0.66 2 1 C-0.75107872 9.90054879 -4.40298363 18.41643491 -8 27 C-9.22346561 23.32960317 -8.62604315 22.34733547 -7.25 18.8125 C-6.87617188 17.83667969 -6.50234375 16.86085938 -6.1171875 15.85546875 C-5.74851563 14.91316406 -5.37984375 13.97085937 -5 13 C-4.45618127 11.54246781 -3.91422337 10.08423851 -3.375 8.625 C-2.27942378 5.73666269 -1.16262283 2.8618408 0 0 Z " fill="#230E00" transform="translate(205,308)"/>
<path d="M0 0 C0.97591583 3.38317487 0.85856655 5.5657338 0 9 C-0.66 9 -1.32 9 -2 9 C-2.433125 10.5159375 -2.433125 10.5159375 -2.875 12.0625 C-3.05933594 12.69542969 -3.24367188 13.32835937 -3.43359375 13.98046875 C-3.98118587 15.93291788 -4.46066353 17.90407592 -4.9375 19.875 C-5.288125 20.90625 -5.63875 21.9375 -6 23 C-6.99 23.33 -7.98 23.66 -9 24 C-6.41874331 15.82602049 -3.22988119 7.93359166 0 0 Z " fill="#E5AF34" transform="translate(261,178)"/>
<path d="M0 0 C0.33 0 0.66 0 1 0 C0.88487847 1.72985242 0.75744323 3.45888751 0.625 5.1875 C0.55539062 6.15042969 0.48578125 7.11335937 0.4140625 8.10546875 C-0.00215853 11.01508938 -0.79874096 13.32890774 -2 16 C-2.66 16 -3.32 16 -4 16 C-4 16.99 -4 17.98 -4 19 C-4.99 19.33 -5.98 19.66 -7 20 C-5.07443364 13.14381674 -2.7527517 6.56747868 0 0 Z " fill="#250F01" transform="translate(335,152)"/>
<path d="M0 0 C0.66 0 1.32 0 2 0 C-0.58125669 8.17397951 -3.77011881 16.06640834 -7 24 C-8.02708274 20.85557368 -7.97908435 19.09299661 -6.85546875 15.99609375 C-6.59056641 15.25552734 -6.32566406 14.51496094 -6.05273438 13.75195312 C-5.76720703 12.98818359 -5.48167969 12.22441406 -5.1875 11.4375 C-4.91357422 10.66986328 -4.63964844 9.90222656 -4.35742188 9.11132812 C-3.12971017 5.73438491 -2.01086605 3.01629907 0 0 Z " fill="#2E1300" transform="translate(280,128)"/>
<path d="M0 0 C0.33 0 0.66 0 1 0 C1 3 1 6 1 9 C0.34 9 -0.32 9 -1 9 C-1.0825 9.94875 -1.165 10.8975 -1.25 11.875 C-1.4975 12.90625 -1.745 13.9375 -2 15 C-4.046875 16.1953125 -4.046875 16.1953125 -6 17 C-4.13236819 11.27789404 -2.14710968 5.62338249 0 0 Z " fill="#1C0A05" transform="translate(310,215)"/>
<path d="M0 0 C0.66 0 1.32 0 2 0 C1.43174347 5.54050113 -0.62886517 10.03715966 -3 15 C-5.046875 11.2578125 -5.046875 11.2578125 -4.625 8.9375 C-4.315625 7.9784375 -4.315625 7.9784375 -4 7 C-4 6.01 -4 5.02 -4 4 C-3.34 4 -2.68 4 -2 4 C-1.34 2.68 -0.68 1.36 0 0 Z " fill="#EBB030" transform="translate(294,250)"/>
<path d="M0 0 C0.33 0 0.66 0 1 0 C1 1.98 1 3.96 1 6 C0.34 6 -0.32 6 -1 6 C-1 8.64 -1 11.28 -1 14 C-2.65 14.66 -4.3 15.32 -6 16 C-4.27933894 10.55123997 -2.15294651 5.28830549 0 0 Z " fill="#E1A932" transform="translate(251,202)"/>
<path d="M0 0 C0.66 0 1.32 0 2 0 C1.37321829 3.66172475 0.35548154 6.8818995 -1.0625 10.3125 C-1.42472656 11.19550781 -1.78695313 12.07851562 -2.16015625 12.98828125 C-2.43730469 13.65214844 -2.71445312 14.31601563 -3 15 C-3.66 13.68 -4.32 12.36 -5 11 C-4.34 10.01 -3.68 9.02 -3 8 C-2.83286431 5.37468476 -2.83286431 5.37468476 -3 3 C-2.01 3 -1.02 3 0 3 C0 2.01 0 1.02 0 0 Z " fill="#E8B533" transform="translate(317,192)"/>
<path d="M0 0 C0.66 0.33 1.32 0.66 2 1 C0.02 5.95 -1.96 10.9 -4 16 C-4.33 16 -4.66 16 -5 16 C-5 13.69 -5 11.38 -5 9 C-4.01 8.67 -3.02 8.34 -2 8 C-1.855625 6.865625 -1.71125 5.73125 -1.5625 4.5625 C-1 1 -1 1 0 0 Z " fill="#E4B135" transform="translate(301,234)"/>
<path d="M0 0 C0.66 0 1.32 0 2 0 C-0.89066059 9.59453303 -0.89066059 9.59453303 -4 13 C-5.25541557 9.23375329 -4.37061958 7.62811066 -3 4 C-2.34 4 -1.68 4 -1 4 C-0.67 2.68 -0.34 1.36 0 0 Z " fill="#1F0D01" transform="translate(240,225)"/>
<path d="M0 0 C0.99 0 1.98 0 3 0 C2.37321829 3.66172475 1.35548154 6.8818995 -0.0625 10.3125 C-0.42472656 11.19550781 -0.78695313 12.07851563 -1.16015625 12.98828125 C-1.43730469 13.65214844 -1.71445312 14.31601562 -2 15 C-2.33 15 -2.66 15 -3 15 C-2.35812082 9.86496656 -1.31727753 5.0056546 0 0 Z " fill="#E5B13B" transform="translate(274,298)"/>
<path d="M0 0 C0.268125 0.61875 0.53625 1.2375 0.8125 1.875 C1.95556848 4.2995233 1.95556848 4.2995233 5 6 C5 6.66 5 7.32 5 8 C2.50935112 8.68707555 0.62113708 9 -2 9 C-2.33 8.34 -2.66 7.68 -3 7 C-2.06421005 4.64018187 -1.06652192 2.30368736 0 0 Z " fill="#EDB230" transform="translate(226,263)"/>
<path d="M0 0 C0.66 0 1.32 0 2 0 C1.01 3.3 0.02 6.6 -1 10 C-1.66 10 -2.32 10 -3 10 C-3 9.01 -3 8.02 -3 7 C-3.66 7 -4.32 7 -5 7 C-5 6.34 -5 5.68 -5 5 C-4.360625 4.731875 -3.72125 4.46375 -3.0625 4.1875 C-0.66868314 3.11332248 -0.66868314 3.11332248 0 0 Z " fill="#EBB327" transform="translate(279,288)"/>
<path d="M0 0 C0.33 1.32 0.66 2.64 1 4 C0.34 4 -0.32 4 -1 4 C-0.979375 5.11375 -0.95875 6.2275 -0.9375 7.375 C-1 11 -1 11 -2 13 C-2.99 12.67 -3.98 12.34 -5 12 C-4.35758106 10.186287 -3.71096881 8.37405876 -3.0625 6.5625 C-2.70285156 5.55316406 -2.34320313 4.54382813 -1.97265625 3.50390625 C-1 1 -1 1 0 0 Z " fill="#E6B12E" transform="translate(222,274)"/>
<path d="M0 0 C1.37095624 3.69037278 0.60010967 5.70883835 -0.9375 9.25 C-1.31777344 10.14203125 -1.69804687 11.0340625 -2.08984375 11.953125 C-2.39019531 12.62859375 -2.69054687 13.3040625 -3 14 C-3.66 14 -4.32 14 -5 14 C-3.45730076 9.27934033 -1.92205381 4.58335908 0 0 Z " fill="#D9A231" transform="translate(213,294)"/>
<path d="M0 0 C1.23593891 3.70781672 0.5678132 4.67510253 -0.9375 8.1875 C-1.31777344 9.08855469 -1.69804687 9.98960937 -2.08984375 10.91796875 C-2.54037109 11.94857422 -2.54037109 11.94857422 -3 13 C-5 9.25 -5 9.25 -5 7 C-4.01 7 -3.02 7 -2 7 C-2 5.35 -2 3.7 -2 2 C-1.34 2 -0.68 2 0 2 C0 1.34 0 0.68 0 0 Z " fill="#E6B038" transform="translate(289,265)"/>
<path d="M0 0 C0.66 0 1.32 0 2 0 C2.25 2.75 2.25 2.75 2 6 C0 8.375 0 8.375 -2 10 C-3 8 -3 8 -2.44140625 6.0546875 C-2.15136719 5.33539063 -1.86132812 4.61609375 -1.5625 3.875 C-1.27503906 3.15054687 -0.98757812 2.42609375 -0.69140625 1.6796875 C-0.46324219 1.12539062 -0.23507813 0.57109375 0 0 Z " fill="#E3B031" transform="translate(230,253)"/>
<path d="M0 0 C0.95904856 3.83619425 0.91892116 5.32431536 0 9 C-0.66 9 -1.32 9 -2 9 C-2.33 10.32 -2.66 11.64 -3 13 C-3.66 12.67 -4.32 12.34 -5 12 C-3.35 8.04 -1.7 4.08 0 0 Z " fill="#D7A832" transform="translate(261,178)"/>
<path d="M0 0 C0.66 0.33 1.32 0.66 2 1 C0.68 4.63 -0.64 8.26 -2 12 C-2.66 10.68 -3.32 9.36 -4 8 C-3.67 7.01 -3.34 6.02 -3 5 C-2.34 5 -1.68 5 -1 5 C-0.67 3.35 -0.34 1.7 0 0 Z " fill="#220F00" transform="translate(190,346)"/>
<path d="M0 0 C0.66 0 1.32 0 2 0 C1.54738642 1.43931117 1.08767021 2.87638999 0.625 4.3125 C0.36976563 5.11300781 0.11453125 5.91351563 -0.1484375 6.73828125 C-1 9 -1 9 -3 12 C-2.88541307 10.56163249 -2.75790884 9.12429034 -2.625 7.6875 C-2.55539062 6.88699219 -2.48578125 6.08648437 -2.4140625 5.26171875 C-2 3 -2 3 0 0 Z " fill="#DCAF35" transform="translate(333,153)"/>
<path d="M0 0 C0.33 0 0.66 0 1 0 C1.33 2.64 1.66 5.28 2 8 C1.01 8.66 0.02 9.32 -1 10 C-2.15837626 5.94568308 -1.83691257 3.78187881 0 0 Z " fill="#1B0A02" transform="translate(342,135)"/>
<path d="M0 0 C0.66 0.99 1.32 1.98 2 3 C0.98819642 6.77126791 0.32378142 7.78414572 -3 10 C-2.01 6.7 -1.02 3.4 0 0 Z " fill="#E2AC31" transform="translate(265,168)"/>
<path d="M0 0 C0.99 0.33 1.98 0.66 3 1 C2.34 2.65 1.68 4.3 1 6 C0.34 6 -0.32 6 -1 6 C-1 6.99 -1 7.98 -1 9 C-1.66 8.67 -2.32 8.34 -3 8 C-2.01 5.36 -1.02 2.72 0 0 Z " fill="#DFA737" transform="translate(191,347)"/>
<path d="M0 0 C0.33 0 0.66 0 1 0 C1 2.31 1 4.62 1 7 C-0.98 7.99 -0.98 7.99 -3 9 C-2.01 6.03 -1.02 3.06 0 0 Z " fill="#250F01" transform="translate(307,223)"/>
<path d="M0 0 C0.66 0 1.32 0 2 0 C0.125 5.75 0.125 5.75 -1 8 C-1.66 8 -2.32 8 -3 8 C-2.45276317 4.62537285 -1.9451 2.91765 0 0 Z " fill="#1F0800" transform="translate(280,128)"/>
<path d="M0 0 C0.66 0 1.32 0 2 0 C1.01 2.97 0.02 5.94 -1 9 C-1.33 9 -1.66 9 -2 9 C-2.25 3.375 -2.25 3.375 0 0 Z " fill="#200A00" transform="translate(194,336)"/>
<path d="M0 0 C1.10191901 4.40767604 0.58706842 5.8922935 -1 10 C-1.66 9.67 -2.32 9.34 -3 9 C-2.01 6.03 -1.02 3.06 0 0 Z " fill="#2D1602" transform="translate(266,326)"/>
<path d="M0 0 C0.99 0 1.98 0 3 0 C3 0.99 3 1.98 3 3 C3.66 3 4.32 3 5 3 C4.67 3.99 4.34 4.98 4 6 C3.34 6 2.68 6 2 6 C1.34 4.02 0.68 2.04 0 0 Z " fill="#FABB11" transform="translate(309,192)"/>
<path d="M0 0 C0.66 0 1.32 0 2 0 C1.01 2.97 0.02 5.94 -1 9 C-1.33 9 -1.66 9 -2 9 C-1.125 1.125 -1.125 1.125 0 0 Z " fill="#241000" transform="translate(270,152)"/>
<path d="M0 0 C1.98 0.495 1.98 0.495 4 1 C3.34 2.32 2.68 3.64 2 5 C1.01 5 0.02 5 -1 5 C-0.67 3.35 -0.34 1.7 0 0 Z " fill="#140501" transform="translate(347,122)"/>
</svg>
