<?xml version="1.0" encoding="UTF-8"?>
<svg version="1.1" xmlns="http://www.w3.org/2000/svg" width="284" height="177">
<path d="M0 0 C93.72 0 187.44 0 284 0 C284 58.41 284 116.82 284 177 C190.28 177 96.56 177 0 177 C0 118.59 0 60.18 0 0 Z " fill="#336E3F" transform="translate(0,0)"/>
<path d="M0 0 C46.53 0 93.06 0 141 0 C140.10061869 4.49690654 138.7485487 8.36845747 137 12.5625 C134.6288743 18.15817713 134.6288743 18.15817713 133 24 C132.34 24 131.68 24 131 24 C130.72736328 24.97839844 130.72736328 24.97839844 130.44921875 25.9765625 C129.01668519 30.9573715 127.36137253 35.37564545 125 40 C124.521075 41.36796392 124.0647624 42.74394842 123.625 44.125 C121.17020446 51.74509449 117.91775828 59.05176423 114.5625 66.3125 C111.44282443 73.10122796 108.73695137 80.05118458 106 87 C104.67641584 90.33732293 103.34431317 93.67097251 102 97 C101.61070312 97.96550781 101.22140625 98.93101563 100.8203125 99.92578125 C98.84679699 104.74924928 96.80944255 109.48297746 94.4375 114.125 C89.40006196 124.01214548 85.86584045 134.61377532 82 145 C81.34 145 80.68 145 80 145 C79.71125 146.2375 79.4225 147.475 79.125 148.75 C78.38665206 151.72448742 77.55525067 154.333856 76 157 C75.34 157 74.68 157 74 157 C73.47829224 155.90328979 73.47829224 155.90328979 72.94604492 154.78442383 C71.36244719 151.45921153 69.77501471 148.13584394 68.1875 144.8125 C67.36668945 143.08676758 67.36668945 143.08676758 66.52929688 141.32617188 C65.99755859 140.21435547 65.46582031 139.10253906 64.91796875 137.95703125 C64.43094482 136.93585205 63.9439209 135.91467285 63.44213867 134.86254883 C62.07784326 132.15451367 60.57368929 129.58998365 59 127 C58.40274602 125.57658854 57.84064747 124.13797329 57.3125 122.6875 C55.50038364 118.01084584 53.33832135 113.58706417 51.0625 109.125 C48.11964481 103.35448313 45.50203373 97.54254366 43.078125 91.53125 C42.16456274 89.38636469 41.18846039 87.43713177 40 85.4375 C37.80841313 81.67071006 36.06567585 77.81616215 34.29296875 73.83984375 C33.0488825 71.10736428 31.7322342 68.42778639 30.375 65.75 C28.42399846 61.89054212 26.66910485 57.99133768 25 54 C18.83987536 39.78208199 12.03669113 25.88536157 5.00390625 12.08203125 C4.6790625 11.44080322 4.35421875 10.7995752 4.01953125 10.13891602 C3.11124465 8.3462085 2.19833044 6.5558478 1.28515625 4.765625 C0 2 0 2 0 0 Z " fill="#F9FDFA" transform="translate(53,11)"/>
<path d="M0 0 C24.75 0 49.5 0 75 0 C75 58.41 75 116.82 75 177 C52.89 177 30.78 177 8 177 C8.99 174.03 9.98 171.06 11 168 C11.43750886 164.54486162 11.43750886 164.54486162 11.38095093 161.14961243 C11.3894104 159.85854584 11.39786987 158.56747925 11.40658569 157.23728943 C11.40075478 155.83437981 11.3946104 154.43147147 11.38818359 153.02856445 C11.39225506 151.52959817 11.39760016 150.0306349 11.40411377 148.53167725 C11.41772133 144.48434004 11.41251699 140.43723375 11.40297651 136.38989282 C11.39534996 132.14462199 11.40243342 127.89937016 11.40713501 123.65409851 C11.41258208 116.5300239 11.40542668 109.40604281 11.39111328 102.28198242 C11.37476995 94.05268258 11.38009166 85.82360555 11.3965925 77.59431106 C11.41021487 70.51636804 11.41212393 63.43849199 11.40427649 56.36054009 C11.39960652 52.13841263 11.39895688 47.91638986 11.40888596 43.69426918 C11.41756498 39.72721563 11.41151683 35.76044912 11.39420319 31.79342651 C11.39024413 30.33980472 11.39136246 28.88615868 11.39799118 27.43254662 C11.40621844 25.4448522 11.39406065 23.45710485 11.38095093 21.46943665 C11.37981985 20.35838216 11.37868877 19.24732767 11.37752342 18.10260487 C10.44093621 10.40543998 5.26755295 5.26755295 0 0 Z " fill="#FEFEFE" transform="translate(209,0)"/>
<path d="M0 0 C2 2 2 2 2.1953125 4.1640625 C2.17210937 4.97617188 2.14890625 5.78828125 2.125 6.625 C2.10695313 7.44226563 2.08890625 8.25953125 2.0703125 9.1015625 C2.03550781 10.04128906 2.03550781 10.04128906 2 11 C3.0725 11.391875 4.145 11.78375 5.25 12.1875 C10.00504523 13.92492037 12.28212585 17.47070437 14.37890625 21.9375 C14.96478516 23.4534375 14.96478516 23.4534375 15.5625 25 C17.09550631 28.94058014 18.81996598 32.38615388 21 36 C22.38960879 38.7654984 23.69500437 41.5687688 25 44.375 C25.34289062 45.10460938 25.68578125 45.83421875 26.0390625 46.5859375 C27.62534571 49.97646649 29.1761619 53.37526792 30.640625 56.8203125 C31.90581885 59.77970271 33.31116515 62.63414509 34.765625 65.50390625 C36.39197454 68.79263206 37.94876839 72.11290533 39.5 75.4375 C39.80558838 76.09234375 40.11117676 76.7471875 40.42602539 77.421875 C42.05661708 80.9299979 43.64749424 84.45129108 45.1875 88 C46.58625945 91.19631415 48.23927206 94.15011426 50.015625 97.15625 C51.10864746 99.20349841 51.92563292 101.26811294 52.75 103.4375 C54.53586811 108.07511007 56.68286536 112.45368853 58.9375 116.875 C61.30613408 121.52520193 63.55199267 126.15309363 65.5 131 C68.00766604 137.222412 70.99852829 143.16454117 74.03515625 149.140625 C74.35371582 149.76775391 74.67227539 150.39488281 75.00048828 151.04101562 C75.70787393 152.42745003 76.42029111 153.8113226 77.13623047 155.19335938 C77.68561279 156.26553711 77.68561279 156.26553711 78.24609375 157.359375 C78.58181396 158.00874023 78.91753418 158.65810547 79.26342773 159.32714844 C80 161 80 161 80 163 C80.99 162.67 81.98 162.34 83 162 C82.67 162.99 82.34 163.98 82 165 C82.99 165 83.98 165 85 165 C85 165.66 85 166.32 85 167 C84.01 167 83.02 167 82 167 C82 167.66 82 168.32 82 169 C82.99 169.33 83.98 169.66 85 170 C84.67 170.66 84.34 171.32 84 172 C53.97 172 23.94 172 -7 172 C-12.62508475 161.87484744 -12.62508475 161.87484744 -12.61473083 156.28800964 C-12.62449448 155.02770935 -12.63425812 153.76740906 -12.64431763 152.46891785 C-12.62981702 151.10061125 -12.61481641 149.73230987 -12.59936523 148.36401367 C-12.60123206 146.90121037 -12.60527465 145.43840849 -12.61131287 143.97561646 C-12.62123832 140.02738311 -12.60020281 136.07987442 -12.57283282 132.13174605 C-12.54890962 127.99233069 -12.55194709 123.85292738 -12.55152893 119.7134552 C-12.5469104 112.76921396 -12.52332659 105.8252481 -12.48706055 98.88110352 C-12.44525031 90.85401295 -12.42774041 82.82716973 -12.4244408 74.79997653 C-12.42084211 66.24367861 -12.40197781 57.6874695 -12.37732053 49.13120866 C-12.3710942 46.6681472 -12.3674566 44.20509249 -12.36428642 41.74202538 C-12.35838664 37.87513523 -12.34207592 34.0084217 -12.31768227 30.14160538 C-12.31024274 28.72262881 -12.30617036 27.30363001 -12.30570221 25.88463402 C-12.30444426 23.94875191 -12.2896498 22.01289265 -12.27415466 20.07707214 C-12.2671789 18.4519711 -12.2671789 18.4519711 -12.26006222 16.79403973 C-12.00181579 14.01950841 -11.43252247 12.36141052 -10 10 C-9.01 10.33 -8.02 10.66 -7 11 C-7 10.01 -7 9.02 -7 8 C-7.66 7.67 -8.32 7.34 -9 7 C-6.75 4.5 -6.75 4.5 -4 2 C-2.68 2 -1.36 2 0 2 C0 1.34 0 0.68 0 0 Z " fill="#347241" transform="translate(47,5)"/>
<path d="M0 0 C14.19 0 28.38 0 43 0 C41.35 1.65 39.7 3.3 38 5 C33.17585319 10.37547788 31.75264218 15.26027152 31.73930359 22.43147278 C31.72867638 24.34276222 31.72867638 24.34276222 31.71783447 26.29266357 C31.72012799 27.6922611 31.72263764 29.09185829 31.7253418 30.49145508 C31.72099136 31.97525793 31.71580711 33.45905854 31.70985413 34.94285583 C31.69648667 38.96366317 31.69588308 42.98437636 31.69841743 47.00520158 C31.69948894 50.36731109 31.69459901 53.72940169 31.689812 57.09150714 C31.67872402 65.02757194 31.67827504 72.96358941 31.68432617 80.8996582 C31.69036238 89.07259125 31.67806233 97.24535198 31.6567561 105.41825563 C31.63911005 112.44692033 31.63314358 119.47553035 31.63639385 126.50421637 C31.63820249 130.69687218 31.6356127 134.88940514 31.62167931 139.08204079 C31.60905704 143.02770819 31.61108636 146.97310821 31.62409019 150.91877174 C31.62644621 152.36146131 31.62375647 153.80416994 31.61546707 155.24683762 C31.60491538 157.22705871 31.61494917 159.20735669 31.6257782 161.18757629 C31.62552659 162.84479312 31.62552659 162.84479312 31.62526989 164.53548908 C31.98636745 169.02098796 31.98636745 169.02098796 35 177 C23.45 177 11.9 177 0 177 C0 118.59 0 60.18 0 0 Z " fill="#FDFEFD" transform="translate(0,0)"/>
<path d="M0 0 C5.94 0 11.88 0 18 0 C19 1 19 1 19.11352539 4.87719727 C19.11336621 6.60694167 19.10766849 8.33669081 19.09765625 10.06640625 C19.0962413 10.97502914 19.09482635 11.88365204 19.09336853 12.81980896 C19.08775193 15.73407221 19.07519665 18.64825981 19.0625 21.5625 C19.05748714 23.53320202 19.05292386 25.50390524 19.04882812 27.47460938 C19.03777711 32.31643559 19.02050138 37.15820495 19 42 C22.39856152 42.91690595 25.40690412 43.1339044 28.9375 43.125 C30.46697266 43.12886719 30.46697266 43.12886719 32.02734375 43.1328125 C35.36268348 43.05933003 35.36268348 43.05933003 40 42 C40 28.47 40 14.94 40 1 C46.27 1 52.54 1 59 1 C59.33 16.84 59.66 32.68 60 49 C60.66 48.67 61.32 48.34 62 48 C62.4021875 46.39125 62.4021875 46.39125 62.8125 44.75 C64.13302278 40.57992807 65.74060884 38.8305239 69 36 C68.40083226 39.62077707 67.4015666 42.57344415 65.8125 45.875 C63.70557858 50.38722189 61.77212483 54.9352202 59.9375 59.5625 C59.55440674 60.52869263 59.55440674 60.52869263 59.16357422 61.5144043 C58.44079964 63.34231099 57.72034145 65.1711331 57 67 C55.67641584 70.33732293 54.34431317 73.67097251 53 77 C52.61070312 77.96550781 52.22140625 78.93101563 51.8203125 79.92578125 C49.84679699 84.74924928 47.80944255 89.48297746 45.4375 94.125 C40.40006196 104.01214548 36.86584045 114.61377532 33 125 C32.34 125 31.68 125 31 125 C30.566875 126.85625 30.566875 126.85625 30.125 128.75 C29.38665206 131.72448742 28.55525067 134.333856 27 137 C26.34 137 25.68 137 25 137 C24.65219482 136.26885986 24.30438965 135.53771973 23.94604492 134.78442383 C22.36244719 131.45921153 20.77501471 128.13584394 19.1875 124.8125 C18.64029297 123.66201172 18.09308594 122.51152344 17.52929688 121.32617188 C16.99755859 120.21435547 16.46582031 119.10253906 15.91796875 117.95703125 C15.43094482 116.93585205 14.9439209 115.91467285 14.44213867 114.86254883 C13.07784326 112.15451367 11.57368929 109.58998365 10 107 C9.40274602 105.57658854 8.84064747 104.13797329 8.3125 102.6875 C5.11396247 94.43601993 0.99181596 86.44805992 -3.265625 78.6953125 C-4.3253249 76.24898401 -3.69548275 74.50373791 -3 72 C-2.34 72.99 -1.68 73.98 -1 75 C-0.67 50.25 -0.34 25.5 0 0 Z " fill="#F7FCF8" transform="translate(102,31)"/>
<path d="M0 0 C5.94 0 11.88 0 18 0 C18 13.53 18 27.06 18 41 C21.58607494 41.89651874 24.28255996 42.13421801 27.9375 42.125 C28.95714844 42.12757812 29.97679687 42.13015625 31.02734375 42.1328125 C34.36268348 42.05933003 34.36268348 42.05933003 39 41 C39 27.47 39 13.94 39 0 C44.94 0 50.88 0 57 0 C57 18.15 57 36.3 57 55 C52.05 55 47.1 55 42 55 C41.505 53.02 41.505 53.02 41 51 C40.34 51 39.68 51 39 51 C39 51.66 39 52.32 39 53 C38.01 53 37.02 53 36 53 C36 53.66 36 54.32 36 55 C33.1269465 55.9576845 31.12139007 56.19535459 28.125 56.25 C27.28195313 56.27578125 26.43890625 56.3015625 25.5703125 56.328125 C23 56 23 56 18 53 C18 60.26 18 67.52 18 75 C12.06 75 6.12 75 0 75 C0 50.25 0 25.5 0 0 Z " fill="#40824E" transform="translate(103,32)"/>
<path d="M0 0 C1.25159912 0.00523682 2.50319824 0.01047363 3.79272461 0.01586914 C4.78942421 0.01799156 4.78942421 0.01799156 5.80625916 0.02015686 C7.93590735 0.02577021 10.06545175 0.03832485 12.19506836 0.05102539 C13.63582205 0.05603868 15.07657739 0.06060188 16.51733398 0.06469727 C20.05577938 0.07574394 23.59416375 0.09301747 27.13256836 0.11352539 C27.23022461 6.26586914 27.23022461 6.26586914 27.13256836 8.11352539 C26.13256836 9.11352539 26.13256836 9.11352539 24.27490234 9.22705078 C23.48414307 9.22181396 22.69338379 9.21657715 21.87866211 9.21118164 C21.0246582 9.20795898 20.1706543 9.20473633 19.29077148 9.20141602 C18.39293945 9.19303711 17.49510742 9.1846582 16.57006836 9.17602539 C15.66836914 9.17151367 14.76666992 9.16700195 13.83764648 9.16235352 C11.60259246 9.15052783 9.36757234 9.13259178 7.13256836 9.11352539 C7.13256836 12.08352539 7.13256836 15.05352539 7.13256836 18.11352539 C7.77323242 18.0787207 8.41389648 18.04391602 9.07397461 18.00805664 C16.20402491 17.78491051 20.96025279 18.42925837 26.57006836 23.17602539 C28.13256836 25.11352539 28.13256836 25.11352539 28.13256836 27.11352539 C28.79256836 27.11352539 29.45256836 27.11352539 30.13256836 27.11352539 C30.43227116 33.40728428 30.63892893 39.63085249 27.13256836 45.11352539 C21.15771981 49.9208748 13.67719548 51.51961014 6.13256836 51.11352539 C-2.65314593 49.3278111 -2.65314593 49.3278111 -4.86743164 47.11352539 C-5.00858325 44.44293688 -4.90990271 41.78920301 -4.86743164 39.11352539 C-3.93801758 39.29270508 -3.00860352 39.47188477 -2.05102539 39.65649414 C5.74419523 41.24997153 5.74419523 41.24997153 13.44506836 40.11352539 C16.39000939 38.32372573 16.39000939 38.32372573 17.13256836 35.05102539 C17.35151668 32.17874404 17.35151668 32.17874404 16.13256836 30.11352539 C11.81709607 28.49389134 6.92050525 28.73857085 2.35717773 28.50805664 C-2.7650219 28.21593513 -2.7650219 28.21593513 -3.86743164 27.11352539 C-3.9671495 25.19894257 -3.99823753 23.28070222 -4.00024414 21.36352539 C-4.0015332 20.19821289 -4.00282227 19.03290039 -4.00415039 17.83227539 C-4.0002832 16.60508789 -3.99641602 15.37790039 -3.99243164 14.11352539 C-3.99629883 12.88633789 -4.00016602 11.65915039 -4.00415039 10.39477539 C-4.00286133 9.22946289 -4.00157227 8.06415039 -4.00024414 6.86352539 C-3.99911621 5.78586914 -3.99798828 4.70821289 -3.99682617 3.59790039 C-3.81087473 0.02763263 -3.6144243 0.14309981 0 0 Z " fill="#F6FBF6" transform="translate(166.867431640625,114.886474609375)"/>
<path d="M0 0 C0.67549401 -0.00594224 1.35098801 -0.01188449 2.04695153 -0.0180068 C4.31538823 -0.03538025 6.58361383 -0.03839712 8.85211182 -0.04138184 C10.47664847 -0.05063835 12.10118078 -0.0606877 13.72570801 -0.07147217 C18.14321318 -0.09772498 22.56065756 -0.11061121 26.97822857 -0.11949348 C29.73836524 -0.12535485 32.49848528 -0.13356449 35.25861359 -0.14250183 C43.89503139 -0.16985446 52.53141121 -0.1891858 61.16786933 -0.19690561 C71.13615726 -0.20586484 81.10389638 -0.2409493 91.07201743 -0.2989068 C98.77744283 -0.34215226 106.48271391 -0.36231481 114.18825936 -0.36498785 C118.79018763 -0.36708336 123.39160012 -0.37888397 127.99340057 -0.41462708 C132.32414939 -0.44760981 136.6539954 -0.45189098 140.98482513 -0.43434906 C142.57189351 -0.43280928 144.15901061 -0.44148175 145.74595642 -0.46126556 C159.22357631 -0.61939394 159.22357631 -0.61939394 163.73498535 3.1262207 C168.99047043 8.77289246 171.50423769 13.69543966 171.52478027 21.39628601 C171.53049042 22.67621429 171.53620056 23.95614258 171.54208374 25.27485657 C171.5433291 26.69638052 171.5444542 28.11790458 171.54547119 29.53942871 C171.55009982 31.03426231 171.55512454 32.52909474 171.56051636 34.02392578 C171.57364044 38.0882048 171.58008565 42.15246731 171.58452702 46.21676421 C171.58745851 48.75712986 171.59156352 51.297491 171.59603119 53.83785439 C171.60970786 61.78923496 171.61937296 69.74060523 171.62323308 77.69199675 C171.62771053 86.86432383 171.64524311 96.03650163 171.67423368 105.20878333 C171.69587256 112.30190687 171.70593858 119.3949885 171.7072742 126.4881447 C171.7083209 130.72274247 171.71419964 134.95719996 171.73209381 139.19176292 C171.74861209 143.17841017 171.75071188 147.16481228 171.7419548 151.15148163 C171.74118636 152.61072002 171.74550167 154.06997178 171.75541306 155.52917671 C171.80377505 163.09617756 171.75998505 169.4189974 168.38433838 176.28088379 C167.38433838 177.28088379 167.38433838 177.28088379 164.82183838 177.34338379 C164.01746338 177.32275879 163.21308838 177.30213379 162.38433838 177.28088379 C163.58815286 174.78726808 164.8386256 172.59945296 166.38433838 170.28088379 C166.69576949 167.44504116 166.69576949 167.44504116 166.65849304 164.17221069 C166.67345573 162.25448601 166.67345573 162.25448601 166.6887207 160.29801941 C166.68961654 158.8780824 166.69028009 157.45814523 166.69073486 156.03820801 C166.69835532 154.54499394 166.70678262 153.05178381 166.71595764 151.55857849 C166.73792815 147.49835644 166.74670561 143.43820972 166.75178409 139.37793493 C166.7554264 136.83956477 166.76166598 134.30121436 166.76878548 131.76285172 C166.7932944 122.90199161 166.80633378 114.04119011 166.80987549 105.18029785 C166.81350598 96.93064725 166.84336252 88.6813698 166.88528007 80.43183315 C166.92002849 73.34377965 166.93542476 66.25584944 166.93612152 59.16771138 C166.93691317 54.93689657 166.94559857 50.70646127 166.97411919 46.47573471 C167.00037625 42.49140617 167.00246306 38.50776952 166.98646355 34.52339363 C166.98465474 33.06617913 166.9912883 31.60892419 167.00728226 30.15179634 C167.10833844 20.3416724 166.25147046 13.91220243 159.7855072 6.43102074 C153.74044564 0.8390971 146.60984425 1.45947381 138.81768799 1.56799316 C137.35004692 1.56640932 135.88240672 1.56220834 134.41477966 1.55560303 C130.44756305 1.54537811 126.48139277 1.57231599 122.51434398 1.60665703 C118.35364987 1.63684509 114.19296607 1.63438371 110.03218079 1.63598633 C103.04741683 1.64335942 96.06304738 1.6732314 89.07843018 1.71838379 C80.12472807 1.77614908 71.17134317 1.79683541 62.21747494 1.80574799 C54.50350632 1.81372084 46.78960606 1.83871919 39.07568669 1.86644173 C36.60356442 1.87461929 34.13144453 1.88048083 31.65931511 1.8860321 C27.76943607 1.89585614 23.87974661 1.91632614 19.98996162 1.94490814 C18.56579935 1.95391275 17.14161168 1.95962163 15.71742249 1.96172333 C5.86213018 1.95128592 5.86213018 1.95128592 -3.61566162 4.28088379 C-5.25534912 4.68307129 -5.25534912 4.68307129 -6.92816162 5.09338379 C-9.84019124 6.04670824 -9.84019124 6.04670824 -10.99066162 8.90588379 C-11.19691162 9.68963379 -11.40316162 10.47338379 -11.61566162 11.28088379 C-12.27566162 10.29088379 -12.93566162 9.30088379 -13.61566162 8.28088379 C-9.61779729 1.93944381 -7.54533325 0.03702898 0 0 Z " fill="#19361D" transform="translate(49.61566162109375,-0.2808837890625)"/>
<path d="M0 0 C2.72349154 2.72349154 2.25040889 4.17549163 2.2515564 7.98841858 C2.25693924 9.26552704 2.26232208 10.5426355 2.26786804 11.85844421 C2.26385333 13.28201337 2.2596824 14.7055821 2.25537109 16.12915039 C2.25811995 17.62221468 2.2617992 19.1152775 2.26634216 20.6083374 C2.27446795 23.82936133 2.27661909 27.05031577 2.27439499 30.27134895 C2.27156553 35.3693879 2.28590203 40.46728782 2.30337524 45.56529236 C2.3504313 60.06425872 2.37432943 74.56321657 2.38085938 89.06225586 C2.38461613 97.06574576 2.40269917 105.06907921 2.43595374 113.07250208 C2.45612719 118.13469331 2.45855727 123.19647986 2.44767356 128.25869477 C2.4450564 131.4189599 2.45912017 134.57899225 2.47775459 137.73919678 C2.4830535 139.19799893 2.48161937 140.65684457 2.47271919 142.1156292 C2.42698423 150.27424473 2.76258413 156.87843917 7 164 C5.35 164 3.7 164 2 164 C-2.59239305 156.27054664 -2.5594759 148.85099768 -2.48583984 140.07275391 C-2.48798907 138.57877267 -2.49187174 137.08479307 -2.49734497 135.59082031 C-2.50698612 131.55805559 -2.49180474 127.52573789 -2.47143888 123.49302721 C-2.4538008 119.26638372 -2.45739416 115.03975263 -2.4581604 110.81307983 C-2.45629157 103.72345545 -2.43897775 96.63400305 -2.41162109 89.54443359 C-2.38010194 81.34578029 -2.36962763 73.14731468 -2.3710922 64.94860518 C-2.37244193 56.2129383 -2.35857452 47.4773438 -2.34019899 38.74169874 C-2.33593501 36.22509073 -2.3345165 33.70849438 -2.33372116 31.19188309 C-2.33171499 27.24375267 -2.31952778 23.2957803 -2.29938889 19.34770203 C-2.29353972 17.89766279 -2.29108799 16.44760536 -2.29224396 14.99755478 C-2.29322312 13.02192252 -2.28069387 11.04629718 -2.26742554 9.07070923 C-2.26407385 7.96426371 -2.26072216 6.85781818 -2.25726891 5.71784401 C-2 3 -2 3 0 0 Z " fill="#1B3A21" transform="translate(33,13)"/>
<path d="M0 0 C8.91 0 17.82 0 27 0 C27 2.31 27 4.62 27 7 C17.595 7.495 17.595 7.495 8 8 C8 11.3 8 14.6 8 18 C9.134375 18.268125 10.26875 18.53625 11.4375 18.8125 C12.613125 19.204375 13.78875 19.59625 15 20 C15.33 20.99 15.66 21.98 16 23 C10.38486351 24.45577613 5.94784745 25 0 25 C0 16.75 0 8.5 0 0 Z " fill="#F7FCF7" transform="translate(165,116)"/>
<path d="M0 0 C1.25159912 0.00523682 2.50319824 0.01047363 3.79272461 0.01586914 C4.78942421 0.01799156 4.78942421 0.01799156 5.80625916 0.02015686 C7.93590735 0.02577021 10.06545175 0.03832485 12.19506836 0.05102539 C13.63582205 0.05603868 15.07657739 0.06060188 16.51733398 0.06469727 C20.05577938 0.07574394 23.59416375 0.09301747 27.13256836 0.11352539 C27.23022461 6.26586914 27.23022461 6.26586914 27.13256836 8.11352539 C26.13256836 9.11352539 26.13256836 9.11352539 24.27490234 9.22705078 C23.48414307 9.22181396 22.69338379 9.21657715 21.87866211 9.21118164 C21.0246582 9.20795898 20.1706543 9.20473633 19.29077148 9.20141602 C18.39293945 9.19303711 17.49510742 9.1846582 16.57006836 9.17602539 C15.66836914 9.17151367 14.76666992 9.16700195 13.83764648 9.16235352 C11.60259246 9.15052783 9.36757234 9.13259178 7.13256836 9.11352539 C7.13256836 12.08352539 7.13256836 15.05352539 7.13256836 18.11352539 C8.1109668 18.0787207 8.1109668 18.0787207 9.10913086 18.04321289 C14.21955739 17.93768786 18.33681869 18.09426237 23.13256836 20.11352539 C19.47479362 21.32375209 16.25520993 21.05425941 12.44506836 20.73852539 C11.28620117 20.64829102 10.12733398 20.55805664 8.93334961 20.46508789 C6.13256836 20.11352539 6.13256836 20.11352539 5.13256836 19.11352539 C5.03432899 17.44923488 5.00283205 15.78070608 5.00756836 14.11352539 C5.00499023 13.20602539 5.00241211 12.29852539 4.99975586 11.36352539 C5.13256836 9.11352539 5.13256836 9.11352539 6.13256836 8.11352539 C7.54826959 8.02700928 8.96816336 8.00647635 10.38647461 8.01586914 C11.66748047 8.02070312 11.66748047 8.02070312 12.97436523 8.02563477 C13.87219727 8.03401367 14.7700293 8.04239258 15.69506836 8.05102539 C16.59676758 8.05553711 17.4984668 8.06004883 18.42749023 8.06469727 C20.6625815 8.07652315 22.89754273 8.09300319 25.13256836 8.11352539 C24.80256836 7.12352539 24.47256836 6.13352539 24.13256836 5.11352539 C24.46256836 3.79352539 24.79256836 2.47352539 25.13256836 1.11352539 C16.22256836 1.11352539 7.31256836 1.11352539 -1.86743164 1.11352539 C-1.86743164 9.36352539 -1.86743164 17.61352539 -1.86743164 26.11352539 C0.33944336 26.09290039 2.54631836 26.07227539 4.82006836 26.05102539 C9.08891742 26.0111296 12.97630468 26.1042606 17.13256836 27.11352539 C17.46256836 28.76352539 17.79256836 30.41352539 18.13256836 32.11352539 C17.47256836 31.45352539 16.81256836 30.79352539 16.13256836 30.11352539 C11.77843022 28.54148502 6.94075296 28.73959365 2.35717773 28.50805664 C-2.7650219 28.21593513 -2.7650219 28.21593513 -3.86743164 27.11352539 C-3.9671495 25.19894257 -3.99823753 23.28070222 -4.00024414 21.36352539 C-4.0015332 20.19821289 -4.00282227 19.03290039 -4.00415039 17.83227539 C-4.0002832 16.60508789 -3.99641602 15.37790039 -3.99243164 14.11352539 C-3.99629883 12.88633789 -4.00016602 11.65915039 -4.00415039 10.39477539 C-4.00286133 9.22946289 -4.00157227 8.06415039 -4.00024414 6.86352539 C-3.99911621 5.78586914 -3.99798828 4.70821289 -3.99682617 3.59790039 C-3.81087473 0.02763263 -3.6144243 0.14309981 0 0 Z " fill="#ABD2B1" transform="translate(166.867431640625,114.886474609375)"/>
<path d="M0 0 C-0.66 0 -1.32 0 -2 0 C-2.33 1.65 -2.66 3.3 -3 5 C-2.01 5 -1.02 5 0 5 C0.33 4.01 0.66 3.02 1 2 C2 4 3 6 4 8 C3.34 8 2.68 8 2 8 C2 8.66 2 9.32 2 10 C1.01 10 0.02 10 -1 10 C-1 10.66 -1 11.32 -1 12 C-3.8730535 12.9576845 -5.87860993 13.19535459 -8.875 13.25 C-10.13957031 13.28867188 -10.13957031 13.28867188 -11.4296875 13.328125 C-14 13 -14 13 -19 10 C-19 17.26 -19 24.52 -19 32 C-19.33 32 -19.66 32 -20 32 C-20 24.41 -20 16.82 -20 9 C-19.34 9 -18.68 9 -18 9 C-18.33 8.01 -18.66 7.02 -19 6 C-18.34 5.67 -17.68 5.34 -17 5 C-17 5.66 -17 6.32 -17 7 C-15.35 7.33 -13.7 7.66 -12 8 C-11.34 6.02 -10.68 4.04 -10 2 C-8.5459375 2.0309375 -8.5459375 2.0309375 -7.0625 2.0625 C-4.12534105 2.35618499 -4.12534105 2.35618499 -3 1 C-6.96 1 -10.92 1 -15 1 C-15 0.67 -15 0.34 -15 0 C-13.06325815 -0.19517554 -11.12555991 -0.38087873 -9.1875 -0.5625 C-8.10855469 -0.66691406 -7.02960938 -0.77132812 -5.91796875 -0.87890625 C-3 -1 -3 -1 0 0 Z " fill="#508D5D" transform="translate(140,75)"/>
<path d="M0 0 C0.29519531 0.66515625 0.59039062 1.3303125 0.89453125 2.015625 C-1.10546875 4.015625 -3.10546875 6.015625 -5.10546875 8.015625 C-4.11546875 8.675625 -3.12546875 9.335625 -2.10546875 10.015625 C-5.10546875 11.015625 -5.10546875 11.015625 -7.66796875 10.140625 C-12.11366938 8.68566843 -16.46017655 8.36448094 -21.10546875 8.015625 C-21.10546875 5.045625 -21.10546875 2.075625 -21.10546875 -0.984375 C-18.00164582 -1.25973827 -14.90026672 -1.50553428 -11.79296875 -1.734375 C-10.91189453 -1.81558594 -10.03082031 -1.89679688 -9.12304688 -1.98046875 C-2.57670376 -2.42850744 -2.57670376 -2.42850744 0 0 Z " fill="#3C7C4B" transform="translate(195.10546875,124.984375)"/>
<path d="M0 0 C46.53 0 93.06 0 141 0 C140.23539233 3.82303833 139.52385218 6.38393238 137.9375 9.8125 C137.57527344 10.60269531 137.21304688 11.39289062 136.83984375 12.20703125 C136.56269531 12.79871094 136.28554687 13.39039063 136 14 C134.72900955 10.18702864 135.54601843 8.6732166 137 5 C137.66 4.01 138.32 3.02 139 2 C72.175 1.505 72.175 1.505 4 1 C3.67 2.65 3.34 4.3 3 6 C0 2.25 0 2.25 0 0 Z " fill="#DAF4DF" transform="translate(53,11)"/>
<path d="M0 0 C0.33 0 0.66 0 1 0 C1.33 15.84 1.66 31.68 2 48 C2.99 47.505 2.99 47.505 4 47 C4.268125 45.9275 4.53625 44.855 4.8125 43.75 C6.13302278 39.57992807 7.74060884 37.8305239 11 35 C10.40083226 38.62077707 9.4015666 41.57344415 7.8125 44.875 C4.57324723 51.79866601 1.79294897 58.88805777 -1 66 C-1.89778361 63.30664917 -2.56897081 60.8016897 -3 58 C-2.67 57.34 -2.34 56.68 -2 56 C-6.29 56 -10.58 56 -15 56 C-15 55.67 -15 55.34 -15 55 C-10.05 55 -5.1 55 0 55 C0 36.85 0 18.7 0 0 Z " fill="#EBFCED" transform="translate(160,32)"/>
<path d="M0 0 C2.22889496 -0.05428973 4.45817471 -0.09292338 6.6875 -0.125 C8.54955078 -0.15980469 8.54955078 -0.15980469 10.44921875 -0.1953125 C13.84839156 -0.0083393 16.03565372 0.36166444 19 2 C20.125 4.8125 20.125 4.8125 20 8 C17.52607506 11.47895695 15.80056829 12.77342407 11.6875 13.9375 C7.36078503 14.01083415 4.13467837 13.23314969 0 12 C0.33 11.01 0.66 10.02 1 9 C8.75 8.875 8.75 8.875 11 10 C11 9.34 11 8.68 11 8 C11.99 8 12.98 8 14 8 C14 7.34 14 6.68 14 6 C13.01 6 12.02 6 11 6 C11 4.68 11 3.36 11 2 C7.37 1.67 3.74 1.34 0 1 C0 0.67 0 0.34 0 0 Z " fill="#377646" transform="translate(165,143)"/>
<path d="M0 0 C0.33 0 0.66 0 1 0 C1 2.64 1 5.28 1 8 C0.195625 8.268125 -0.60875 8.53625 -1.4375 8.8125 C-2.283125 9.204375 -3.12875 9.59625 -4 10 C-4.33 10.99 -4.66 11.98 -5 13 C-5.62648437 12.9278125 -6.25296875 12.855625 -6.8984375 12.78125 C-8.12433594 12.64203125 -8.12433594 12.64203125 -9.375 12.5 C-10.18710938 12.4071875 -10.99921875 12.314375 -11.8359375 12.21875 C-13.96912825 11.96647649 -13.96912825 11.96647649 -16 12 C-16.33 12.99 -16.66 13.98 -17 15 C-16.34 15.33 -15.68 15.66 -15 16 C-17.3125 16.625 -17.3125 16.625 -20 17 C-20.99 16.34 -21.98 15.68 -23 15 C-23.40843923 12.28796348 -23.13336867 9.7562858 -23 7 C-22.07058594 7.17917969 -21.14117187 7.35835937 -20.18359375 7.54296875 C-12.41769022 9.14099508 -12.41769022 9.14099508 -4.75 8 C-1.4604338 5.60758822 -0.78726072 3.93630359 0 0 Z " fill="#D1EDD8" transform="translate(185,147)"/>
<path d="M0 0 C3.22226407 3.66010887 4.9514452 6.97391819 6.5625 11.5625 C7.96834029 15.54955525 9.26268372 18.75489171 12 22 C11.34 23.32 10.68 24.64 10 26 C10 25.34 10 24.68 10 24 C8.02 24.99 8.02 24.99 6 26 C5 25 5 25 4.9375 23.14453125 C4.958125 22.37496094 4.97875 21.60539062 5 20.8125 C5.04755492 17.09132772 4.75055547 13.65895789 4 10 C2.02 10 0.04 10 -2 10 C-4.125 4.375 -4.125 4.375 -3 1 C-2.01 0.67 -1.02 0.34 0 0 Z " fill="#458453" transform="translate(84,78)"/>
<path d="M0 0 C2.42668267 2.52779445 2.99603747 3.97226229 3.5 7.5 C2.85556708 12.01103041 1.47919797 12.23245616 -2 15 C-3.71014514 18.20784989 -5.09413764 21.47654837 -6 25 C-5.67 25.99 -5.34 26.98 -5 28 C-7.31 28.99 -9.62 29.98 -12 31 C-10.53297403 26.44449829 -8.85393779 21.99822631 -7.0625 17.5625 C-6.68448242 16.61793945 -6.68448242 16.61793945 -6.29882812 15.65429688 C-5.02745898 12.49050614 -3.72496016 9.34427266 -2.37109375 6.21484375 C-0.97744312 3.0678133 -0.97744312 3.0678133 0 0 Z " fill="#498659" transform="translate(157,99)"/>
<path d="M0 0 C6.76599691 -0.7122102 6.76599691 -0.7122102 9.94921875 1.125 C13.72171234 4.26738077 16.72811949 7.64556236 19 12 C18.9375 14.3125 18.9375 14.3125 18 16 C17.01 16.33 16.02 16.66 15 17 C14.731875 16.41992188 14.46375 15.83984375 14.1875 15.2421875 C11.48186306 9.84871386 8.78546307 6.55773908 3.76953125 3.19140625 C2 2 2 2 0 0 Z " fill="#193620" transform="translate(201,0)"/>
<path d="M0 0 C6.27 0 12.54 0 19 0 C17 2 17 2 13.3046875 2.1953125 C11.82799892 2.182009 10.35137642 2.15814835 8.875 2.125 C8.12089844 2.11597656 7.36679688 2.10695313 6.58984375 2.09765625 C4.72642746 2.0740687 2.86317407 2.03819719 1 2 C1.33 3.65 1.66 5.3 2 7 C3.65 7 5.3 7 7 7 C7.66 5.68 8.32 4.36 9 3 C10.98 3 12.96 3 15 3 C14.01 3.495 14.01 3.495 13 4 C13 5.98 13 7.96 13 10 C8.71 9.67 4.42 9.34 0 9 C0 6.03 0 3.06 0 0 Z " fill="#60966C" transform="translate(174,124)"/>
<path d="M0 0 C10.23 0 20.46 0 31 0 C26.97030584 2.01484708 25.32390204 2.09608671 21 2 C20.67 2.33 20.34 2.66 20 3 C17.408843 3.29283624 14.84951731 3.51587694 12.25 3.6875 C11.53328125 3.74744141 10.8165625 3.80738281 10.078125 3.86914062 C5.85239553 4.15266843 2.7876019 3.94599232 -1 2 C-0.67 1.34 -0.34 0.68 0 0 Z " fill="#2E5D38" transform="translate(76,1)"/>
<path d="M0 0 C0.33 0 0.66 0 1 0 C1.33 10.56 1.66 21.12 2 32 C2.66 32 3.32 32 4 32 C5.32 34.97 6.64 37.94 8 41 C6.35 41 4.7 41 3 41 C0.13435851 36.19418371 -0.40841084 32.23483559 -0.29296875 26.7578125 C-0.28872391 25.98944061 -0.28447906 25.22106873 -0.28010559 24.42941284 C-0.26341826 21.99424015 -0.22578641 19.5599192 -0.1875 17.125 C-0.17244023 15.46615785 -0.15875409 13.80730263 -0.14648438 12.1484375 C-0.11354759 8.0986341 -0.06183594 4.04946106 0 0 Z " fill="#0E2A15" transform="translate(32,136)"/>
<path d="M0 0 C-0.33 0.66 -0.66 1.32 -1 2 C-2.32 2 -3.64 2 -5 2 C-5 2.99 -5 3.98 -5 5 C-8.465 6.485 -8.465 6.485 -12 8 C-12 8.99 -12 9.98 -12 11 C-12 11.99 -12 12.98 -12 14 C-12.99 14 -13.98 14 -15 14 C-15.99 15.485 -15.99 15.485 -17 17 C-17.309375 16.21625 -17.61875 15.4325 -17.9375 14.625 C-18.92875038 12.07669872 -18.92875038 12.07669872 -20 10 C-16.25 4.125 -16.25 4.125 -14 3 C-14.33 4.32 -14.66 5.64 -15 7 C-14.278125 6.401875 -13.55625 5.80375 -12.8125 5.1875 C-5.53308824 -0.47426471 -5.53308824 -0.47426471 0 0 Z " fill="#2A5434" transform="translate(52,2)"/>
<path d="M0 0 C0.33 0 0.66 0 1 0 C1 2.31 1 4.62 1 7 C-5.27 7 -11.54 7 -18 7 C-18 9.97 -18 12.94 -18 16 C-17.34773437 15.97679687 -16.69546875 15.95359375 -16.0234375 15.9296875 C-10.91301097 15.82416247 -6.79574967 15.98073698 -2 18 C-5.65777474 19.2102267 -8.87735843 18.94073402 -12.6875 18.625 C-13.84636719 18.53476563 -15.00523437 18.44453125 -16.19921875 18.3515625 C-19 18 -19 18 -20 17 C-20.09823937 15.33570949 -20.12973631 13.66718069 -20.125 12 C-20.12757813 11.0925 -20.13015625 10.185 -20.1328125 9.25 C-20 7 -20 7 -19 6 C-17.58429877 5.91348389 -16.164405 5.89295096 -14.74609375 5.90234375 C-13.46508789 5.90717773 -13.46508789 5.90717773 -12.15820312 5.91210938 C-11.26037109 5.92048828 -10.36253906 5.92886719 -9.4375 5.9375 C-8.53580078 5.94201172 -7.63410156 5.94652344 -6.70507812 5.95117188 C-4.46998686 5.96299775 -2.23502563 5.9794778 0 6 C-0.33 5.01 -0.66 4.02 -1 3 C-0.67 2.01 -0.34 1.02 0 0 Z " fill="#C5E3CA" transform="translate(192,117)"/>
<path d="M0 0 C0.99 0.33 1.98 0.66 3 1 C5.000825 0.67165501 7.00072924 0.33767966 9 0 C11.09366592 0.04781809 13.1866027 0.16421904 15.2734375 0.33984375 C16.42714844 0.43330078 17.58085937 0.52675781 18.76953125 0.62304688 C19.95933594 0.72681641 21.14914063 0.83058594 22.375 0.9375 C23.58800781 1.03740234 24.80101562 1.13730469 26.05078125 1.24023438 C29.03446765 1.48691711 32.01741592 1.74038236 35 2 C35 2.33 35 2.66 35 3 C19.655 3.495 19.655 3.495 4 4 C3.67 4.99 3.34 5.98 3 7 C0.525 6.01 0.525 6.01 -2 5 C-2 3.68 -2 2.36 -2 1 C-1.34 0.67 -0.68 0.34 0 0 Z " fill="#4C8857" transform="translate(159,112)"/>
<path d="M0 0 C1.32 0.66 2.64 1.32 4 2 C3.84402344 2.77085938 3.68804687 3.54171875 3.52734375 4.3359375 C3.33269531 5.33882813 3.13804687 6.34171875 2.9375 7.375 C2.74027344 8.37273437 2.54304687 9.37046875 2.33984375 10.3984375 C1.75617048 12.97842539 1.75617048 12.97842539 3 15 C2.01 15.33 1.02 15.66 0 16 C-0.33 14.68 -0.66 13.36 -1 12 C-1.33 12.99 -1.66 13.98 -2 15 C-4.0625 15.6875 -4.0625 15.6875 -6 16 C-4.27933894 10.55123997 -2.15294651 5.28830549 0 0 Z " fill="#488352" transform="translate(173,62)"/>
<path d="M0 0 C2 4 2 4 1.125 6.75 C0.75375 7.4925 0.3825 8.235 0 9 C0.66 9.33 1.32 9.66 2 10 C1.34 10 0.68 10 0 10 C0.66 11.65 1.32 13.3 2 15 C1.4225 15.2475 0.845 15.495 0.25 15.75 C-2.3002997 17.16683317 -4.01785701 18.87627537 -6 21 C-6.66 20.67 -7.32 20.34 -8 20 C-5.36 13.4 -2.72 6.8 0 0 Z " fill="#438353" transform="translate(166,78)"/>
<path d="M0 0 C3.15858906 1.57929453 3.90313217 4.71033915 5.25 7.8125 C5.54390625 8.44220703 5.8378125 9.07191406 6.140625 9.72070312 C8.19429095 14.42537536 8.19429095 14.42537536 7.171875 17.44921875 C6.78515625 17.96097656 6.3984375 18.47273438 6 19 C4.35 18.67 2.7 18.34 1 18 C0.67 16.68 0.34 15.36 0 14 C0.66 14 1.32 14 2 14 C1.34 12.68 0.68 11.36 0 10 C0.66 10 1.32 10 2 10 C1.34 6.7 0.68 3.4 0 0 Z " fill="#4B8357" transform="translate(65,37)"/>
<path d="M0 0 C2.16418355 2.16418355 2.99704054 4.19938501 4.140625 7 C5.04264092 9.09923705 6.06673909 11.10050087 7.125 13.125 C8.62396774 16.06572297 9.58642971 18.69143772 10 22 C9.34 21.67 8.68 21.34 8 21 C8 20.01 8 19.02 8 18 C7.34 18 6.68 18 6 18 C5.67 17.01 5.34 16.02 5 15 C4.01 15.495 4.01 15.495 3 16 C3 14.35 3 12.7 3 11 C1.68 10.34 0.36 9.68 -1 9 C-1.125 2.25 -1.125 2.25 0 0 Z " fill="#458254" transform="translate(74,56)"/>
<path d="M0 0 C0 0.66 0 1.32 0 2 C-0.99 2 -1.98 2 -3 2 C-2.484375 2.9075 -1.96875 3.815 -1.4375 4.75 C0 8 0 8 -0.3125 10.375 C-0.539375 10.91125 -0.76625 11.4475 -1 12 C-1.33 11.34 -1.66 10.68 -2 10 C-4.52733235 9.34444881 -4.52733235 9.34444881 -7 9 C-8.125 3.375 -8.125 3.375 -7 0 C-4.05610218 -1.17755913 -3.10046087 -1.03348696 0 0 Z " fill="#285833" transform="translate(56,9)"/>
<path d="M0 0 C1.52889729 2.29334594 2.89775099 4.5116544 4.1875 6.9375 C4.55230469 7.60652344 4.91710937 8.27554688 5.29296875 8.96484375 C6.13595069 11.39132766 5.83853936 12.61256629 5 15 C2.03 14.505 2.03 14.505 -1 14 C-1 13.34 -1 12.68 -1 12 C-0.34 12 0.32 12 1 12 C0.4740625 10.700625 0.4740625 10.700625 -0.0625 9.375 C-1.068959 5.75174758 -0.86063519 3.6146678 0 0 Z " fill="#498358" transform="translate(105,121)"/>
<path d="M0 0 C0.33 0 0.66 0 1 0 C1 2.64 1 5.28 1 8 C0.195625 8.268125 -0.60875 8.53625 -1.4375 8.8125 C-2.283125 9.204375 -3.12875 9.59625 -4 10 C-4.33 10.99 -4.66 11.98 -5 13 C-7.97 12.67 -10.94 12.34 -14 12 C-14 11.34 -14 10.68 -14 10 C-14.66 9.67 -15.32 9.34 -16 9 C-14.989375 9.061875 -13.97875 9.12375 -12.9375 9.1875 C-8.50882862 8.97661089 -5.81974735 8.24691021 -2 6 C-0.48026848 2.94818931 -0.48026848 2.94818931 0 0 Z " fill="#C5DFC8" transform="translate(185,147)"/>
<path d="M0 0 C0.99 0.33 1.98 0.66 3 1 C2.814375 1.9075 2.62875 2.815 2.4375 3.75 C2.03393523 6.74790974 2.19760855 8.19162994 3 11 C2.67 11.66 2.34 12.32 2 13 C-1.875 12.125 -1.875 12.125 -3 11 C-3.47524752 3.63366337 -3.47524752 3.63366337 -1.5 1 C-1.005 0.67 -0.51 0.34 0 0 Z " fill="#3E7A4A" transform="translate(197,112)"/>
<path d="M0 0 C2.475 0.99 2.475 0.99 5 2 C7.6616187 2.44549357 7.6616187 2.44549357 10.3125 2.625 C11.19550781 2.69976562 12.07851562 2.77453125 12.98828125 2.8515625 C13.98408203 2.92503906 13.98408203 2.92503906 15 3 C15 3.33 15 3.66 15 4 C10.71 4.66 6.42 5.32 2 6 C1.67 11.28 1.34 16.56 1 22 C0.67 22 0.34 22 0 22 C0 14.74 0 7.48 0 0 Z " fill="#E0F5E2" transform="translate(121,85)"/>
<path d="M0 0 C0.33 0 0.66 0 1 0 C2.92932559 6.10953104 0.54092546 10.48193871 -2 16 C-2.66 16 -3.32 16 -4 16 C-4.33 16.66 -4.66 17.32 -5 18 C-6.19046765 14.42859705 -5.77683729 13.93918301 -4.1875 10.6875 C-2.53042418 7.17839826 -1.14356779 3.7165953 0 0 Z " fill="#447D51" transform="translate(144,130)"/>
<path d="M0 0 C0.33 0 0.66 0 1 0 C1.33 9.57 1.66 19.14 2 29 C0.68 28.67 -0.64 28.34 -2 28 C-2 25.69 -2 23.38 -2 21 C-1.34 21 -0.68 21 0 21 C-0.56739868 16.87026372 -0.56739868 16.87026372 -2 13 C-1.34 13 -0.68 13 0 13 C0 8.71 0 4.42 0 0 Z " fill="#3B7946" transform="translate(162,115)"/>
<path d="M0 0 C-0.625 1.875 -0.625 1.875 -2 4 C-2.99 4.309375 -3.98 4.61875 -5 4.9375 C-8.21942628 5.69500878 -8.21942628 5.69500878 -9.375 8.625 C-9.58125 9.40875 -9.7875 10.1925 -10 11 C-10.66 10.01 -11.32 9.02 -12 8 C-8.58223332 2.57871493 -6.68916962 -0.36157674 0 0 Z " fill="#203721" transform="translate(48,0)"/>
<path d="M0 0 C0.66 0 1.32 0 2 0 C2.8237461 3.81918645 3.2901908 6.24227958 1.875 9.9375 C0 12 0 12 -2.6875 12.3125 C-3.450625 12.209375 -4.21375 12.10625 -5 12 C-3.79618552 9.50638429 -2.54571278 7.31856917 -1 5 C-0.61500109 3.34450469 -0.27206865 1.6777567 0 0 Z " fill="#1A341D" transform="translate(217,165)"/>
<path d="M0 0 C3.55007718 3.9050849 4.81819916 6.97734643 6 12 C5.34 12.66 4.68 13.32 4 14 C2 12 2 12 1 9 C0.62875 8.38125 0.2575 7.7625 -0.125 7.125 C-1.24799846 4.39771803 -0.77548466 2.79174478 0 0 Z " fill="#386946" transform="translate(56,19)"/>
<path d="M0 0 C0.99 0 1.98 0 3 0 C4.32 2.97 5.64 5.94 7 9 C5.35 9 3.7 9 2 9 C0.93347808 6.69631264 -0.06421005 4.35981813 -1 2 C-0.67 1.34 -0.34 0.68 0 0 Z " fill="#1A351E" transform="translate(33,168)"/>
<path d="M0 0 C0.99 0.99 1.98 1.98 3 3 C-0.26613695 4.91302307 -2.99445248 5.35674661 -6.75 5.625 C-7.73484375 5.69976562 -8.7196875 5.77453125 -9.734375 5.8515625 C-10.48203125 5.90054688 -11.2296875 5.94953125 -12 6 C-10 3 -10 3 -7.87109375 2.3046875 C-6.66646484 2.09199219 -6.66646484 2.09199219 -5.4375 1.875 C-2.43064045 1.51508987 -2.43064045 1.51508987 0 0 Z " fill="#E9F8EC" transform="translate(185,160)"/>
<path d="M0 0 C1.485 0.99 1.485 0.99 3 2 C3 2.66 3 3.32 3 4 C3.66 4 4.32 4 5 4 C5.2358396 9.77807024 4.86783046 14.51324804 3 20 C2.67 19.34 2.34 18.68 2 18 C1.34 17.67 0.68 17.34 0 17 C0.99 15.515 0.99 15.515 2 14 C2.45394552 11.72087062 2.45394552 11.72087062 2.625 9.3125 C2.69976562 8.50425781 2.77453125 7.69601563 2.8515625 6.86328125 C2.90054688 6.24839844 2.94953125 5.63351563 3 5 C2.34 5 1.68 5 1 5 C0.67 3.35 0.34 1.7 0 0 Z " fill="#D9F1E0" transform="translate(192,138)"/>
<path d="M0 0 C0.66 0 1.32 0 2 0 C2.33 0.66 2.66 1.32 3 2 C5.32156597 2.40729228 7.6568787 2.74438677 10 3 C10 3.66 10 4.32 10 5 C8.9275 5.103125 7.855 5.20625 6.75 5.3125 C3.14179128 5.97400493 1.63604977 6.57483421 -1 9 C-1.33 6.69 -1.66 4.38 -2 2 C-1.34 2 -0.68 2 0 2 C0 1.34 0 0.68 0 0 Z " fill="#477E51" transform="translate(198,142)"/>
<path d="M0 0 C1 2 1 2 0.22265625 4.3828125 C-0.35162109 5.74019531 -0.35162109 5.74019531 -0.9375 7.125 C-1.31777344 8.03507812 -1.69804687 8.94515625 -2.08984375 9.8828125 C-2.39019531 10.58148438 -2.69054687 11.28015625 -3 12 C-3.89778361 9.30664917 -4.56897081 6.8016897 -5 4 C-4.67 3.34 -4.34 2.68 -4 2 C-8.29 2 -12.58 2 -17 2 C-17 1.67 -17 1.34 -17 1 C-11.66666667 1 -6.33333333 1 -1 1 C-0.67 0.67 -0.34 0.34 0 0 Z " fill="#D9F4E0" transform="translate(162,86)"/>
<path d="M0 0 C1 3 1 3 0.07421875 5.26953125 C-0.38339844 6.10871094 -0.84101563 6.94789062 -1.3125 7.8125 C-3.2473577 11.48335503 -4.84144367 14.99771448 -6 19 C-6.33 19 -6.66 19 -7 19 C-7.68534906 12.31784662 -4.94389679 6.84642031 -1.25 1.4375 C-0.8375 0.963125 -0.425 0.48875 0 0 Z " fill="#DCF5E2" transform="translate(170,67)"/>
<path d="M0 0 C2.22889496 -0.05428973 4.45817471 -0.09292338 6.6875 -0.125 C8.54955078 -0.15980469 8.54955078 -0.15980469 10.44921875 -0.1953125 C13.81237857 -0.01032021 15.9985587 0.54232105 19 2 C15.25 4 15.25 4 13 4 C13 4.66 13 5.32 13 6 C12.34 6 11.68 6 11 6 C11 4.68 11 3.36 11 2 C7.37 1.67 3.74 1.34 0 1 C0 0.67 0 0.34 0 0 Z " fill="#47804F" transform="translate(165,143)"/>
<path d="M0 0 C1.27241896 4.61251872 0.83288253 8.31503575 0 13 C-1.65 13.33 -3.3 13.66 -5 14 C-3.45730076 9.27934033 -1.92205381 4.58335908 0 0 Z " fill="#538A63" transform="translate(184,35)"/>
<path d="M0 0 C1.32 0.33 2.64 0.66 4 1 C4 2.65 4 4.3 4 6 C5.32 6.33 6.64 6.66 8 7 C8 9.64 8 12.28 8 15 C5.84821844 12.23612808 4.01629579 9.43466931 2.3125 6.375 C1.87550781 5.59898437 1.43851562 4.82296875 0.98828125 4.0234375 C0 2 0 2 0 0 Z " fill="#D9F0DE" transform="translate(112,136)"/>
<path d="M0 0 C7.92 0 15.84 0 24 0 C24 0.33 24 0.66 24 1 C17.4 1 10.8 1 4 1 C3.67 2.65 3.34 4.3 3 6 C0 2.25 0 2.25 0 0 Z " fill="#CEEBD6" transform="translate(53,11)"/>
<path d="M0 0 C11.65766007 -0.86140345 11.65766007 -0.86140345 16.25 2.5 C17.1575 3.325 18.065 4.15 19 5 C18.67 5.99 18.34 6.98 18 8 C17.67 7.34 17.34 6.68 17 6 C15.6846659 5.29848848 14.34882408 4.63474075 13 4 C12.01 3.34 11.02 2.68 10 2 C7.49103314 1.54398739 7.49103314 1.54398739 4.8125 1.375 C3.91144531 1.30023438 3.01039063 1.22546875 2.08203125 1.1484375 C1.39496094 1.09945313 0.70789063 1.05046875 0 1 C0 0.67 0 0.34 0 0 Z " fill="#2A5233" transform="translate(191,1)"/>
<path d="M0 0 C1.85000743 3.57668103 3.0562789 7.0902983 4 11 C3.01 11 2.02 11 1 11 C0.32845067 9.71086513 -0.33708859 8.41859796 -1 7.125 C-1.37125 6.40570313 -1.7425 5.68640625 -2.125 4.9453125 C-3 3 -3 3 -3 1 C-2.01 0.67 -1.02 0.34 0 0 Z " fill="#DCF1DF" transform="translate(93,88)"/>
<path d="M0 0 C4.20763224 1.5027258 5.8027758 4.23332995 8 8 C8 8.66 8 9.32 8 10 C7.34 10 6.68 10 6 10 C5.67 10.66 5.34 11.32 5 12 C4.16180842 10.37750059 3.3295884 8.75191503 2.5 7.125 C2.0359375 6.22007813 1.571875 5.31515625 1.09375 4.3828125 C0 2 0 2 0 0 Z " fill="#E6F4E6" transform="translate(56,17)"/>
<path d="M0 0 C0 2.93593133 -0.22499427 5.76556416 -0.5 8.6875 C-0.5928125 9.68136719 -0.685625 10.67523438 -0.78125 11.69921875 C-0.8534375 12.45847656 -0.925625 13.21773437 -1 14 C-1.28875 13.360625 -1.5775 12.72125 -1.875 12.0625 C-2.82823451 9.84793921 -2.82823451 9.84793921 -5 9 C-3.90931332 5.22454612 -3.0916909 2.52956528 0 0 Z " fill="#2A432F" transform="translate(37,5)"/>
<path d="M0 0 C2.475 0.99 2.475 0.99 5 2 C5 2.66 5 3.32 5 4 C5.66 4 6.32 4 7 4 C7 6.97 7 9.94 7 13 C3.67006966 9.17058011 1.94675475 4.62477778 0 0 Z " fill="#E0F6E7" transform="translate(100,111)"/>
<path d="M0 0 C0.85078125 0.48919922 0.85078125 0.48919922 1.71875 0.98828125 C4.20166401 2.08943661 5.80398946 2.23828102 8.5 2.1875 C9.2528125 2.18105469 10.005625 2.17460938 10.78125 2.16796875 C12.95990143 2.00303563 14.90204811 1.59600906 17 1 C17 1.99 17 2.98 17 4 C11.39 4 5.78 4 0 4 C0 2.68 0 1.36 0 0 Z " fill="#477450" transform="translate(103,103)"/>
<path d="M0 0 C2.60018816 3.90028225 2.15085514 7.47434569 2 12 C0.68 12 -0.64 12 -2 12 C-3.12377697 8.69564916 -2.89554742 6.9493138 -1.5625 3.75 C-1.27503906 3.04359375 -0.98757812 2.3371875 -0.69140625 1.609375 C-0.46324219 1.07828125 -0.23507813 0.5471875 0 0 Z " fill="#4D7855" transform="translate(133,156)"/>
<path d="M0 0 C0.99 0 1.98 0 3 0 C3.66 1.32 4.32 2.64 5 4 C4.01 4 3.02 4 2 4 C2 6.64 2 9.28 2 12 C0 10 0 10 -0.1953125 7.6171875 C-0.17210937 6.71226562 -0.14890625 5.80734375 -0.125 4.875 C-0.10695312 3.96492187 -0.08890625 3.05484375 -0.0703125 2.1171875 C-0.04710937 1.41851562 -0.02390625 0.71984375 0 0 Z " fill="#498855" transform="translate(160,150)"/>
<path d="M0 0 C2.15377564 2.62198774 3.40072174 4.64404172 4 8 C2.68 8.33 1.36 8.66 0 9 C-2 6 -2 6 -1.6875 3.9375 C-1 2 -1 2 0 0 Z " fill="#4D8157" transform="translate(115,143)"/>
<path d="M0 0 C0.99 0 1.98 0 3 0 C3.33 1.65 3.66 3.3 4 5 C0.535 6.485 0.535 6.485 -3 8 C-1.125 2.25 -1.125 2.25 0 0 Z " fill="#4C8A5E" transform="translate(148,122)"/>
<path d="M0 0 C2.475 0.495 2.475 0.495 5 1 C5 3.31 5 5.62 5 8 C4.01 8.495 4.01 8.495 3 9 C2.01 6.03 1.02 3.06 0 0 Z " fill="#E8FAEB" transform="translate(67,39)"/>
<path d="M0 0 C0.66 0.33 1.32 0.66 2 1 C2 1.66 2 2.32 2 3 C-0.90541905 3.96847302 -2.96637454 4.19582812 -6 4.25 C-6.86625 4.27578125 -7.7325 4.3015625 -8.625 4.328125 C-11.42903194 3.94072585 -12.26286782 3.17141522 -14 1 C-12.33388095 0.957279 -10.66617115 0.95936168 -9 1 C-8.67 1.33 -8.34 1.66 -8 2 C-5.04182893 2.25005386 -5.04182893 2.25005386 -2 2 C-1.34 1.34 -0.68 0.68 0 0 Z " fill="#56835E" transform="translate(137,84)"/>
<path d="M0 0 C1.98 0.66 3.96 1.32 6 2 C5.34 3.32 4.68 4.64 4 6 C4 5.34 4 4.68 4 4 C2.02 4.99 2.02 4.99 0 6 C-0.38218767 4.34385343 -0.71395102 2.67542976 -1 1 C-0.67 0.67 -0.34 0.34 0 0 Z " fill="#438450" transform="translate(90,98)"/>
<path d="M0 0 C2 4 2 4 1.125 6.75 C0.75375 7.4925 0.3825 8.235 0 9 C0.66 9.33 1.32 9.66 2 10 C0.35 10 -1.3 10 -3 10 C-2.01 6.7 -1.02 3.4 0 0 Z " fill="#538C62" transform="translate(166,78)"/>
<path d="M0 0 C0.33 0 0.66 0 1 0 C1.29162929 4.95769796 1.12940055 8.02806853 -2 12 C-2.66 12 -3.32 12 -4 12 C-2.87204037 7.89100419 -1.66489182 3.92438786 0 0 Z " fill="#4F7558" transform="translate(191,19)"/>
<path d="M0 0 C1.99097846 2.98646769 2.94124926 5.59687262 4 9 C3.34 9.66 2.68 10.32 2 11 C-0.26881841 7.91440696 -1.05451946 6.57790624 -0.6875 2.6875 C-0.460625 1.800625 -0.23375 0.91375 0 0 Z " fill="#5C8C68" transform="translate(105,121)"/>
<path d="M0 0 C0.99 0.33 1.98 0.66 3 1 C3.94921875 3.28515625 3.94921875 3.28515625 4.6875 6.0625 C4.93886719 6.98160156 5.19023438 7.90070313 5.44921875 8.84765625 C5.63097656 9.55792969 5.81273438 10.26820312 6 11 C5.34 10.67 4.68 10.34 4 10 C4 9.01 4 8.02 4 7 C3.34 7 2.68 7 2 7 C1.67 6.01 1.34 5.02 1 4 C0.01 4.495 0.01 4.495 -1 5 C-0.67 3.35 -0.34 1.7 0 0 Z " fill="#50865D" transform="translate(78,67)"/>
<path d="M0 0 C5.445 1.485 5.445 1.485 11 3 C6.89794883 5.05102558 5.38406007 5 1 5 C0.67 3.35 0.34 1.7 0 0 Z " fill="#61896A" transform="translate(162,162)"/>
<path d="M0 0 C-0.4794463 4.21912747 -1.16625119 6.79663178 -4 10 C-4 7.03 -4 4.06 -4 1 C-2 0 -2 0 0 0 Z " fill="#D3ECDA" transform="translate(156,102)"/>
<path d="M0 0 C0.33 1.65 0.66 3.3 1 5 C-0.98 5.99 -0.98 5.99 -3 7 C-3.66 5.02 -4.32 3.04 -5 1 C-2 0 -2 0 0 0 Z " fill="#254228" transform="translate(219,10)"/>
<path d="M0 0 C1.21386936 3.64160808 0.6674695 4.33165469 -0.9375 7.6875 C-1.31777344 8.49574219 -1.69804687 9.30398437 -2.08984375 10.13671875 C-2.39019531 10.75160156 -2.69054687 11.36648437 -3 12 C-4.27099045 8.18702864 -3.45398157 6.6732166 -2 3 C-1.34 2.01 -0.68 1.02 0 0 Z " fill="#E5F6E8" transform="translate(192,13)"/>
<path d="M0 0 C1.98 0 3.96 0 6 0 C6.33 1.98 6.66 3.96 7 6 C6.21625 5.505 5.4325 5.01 4.625 4.5 C2.21447673 2.83462035 2.21447673 2.83462035 0 3 C0 2.01 0 1.02 0 0 Z " fill="#30603A" transform="translate(49,15)"/>
<path d="M0 0 C0.99 0.99 1.98 1.98 3 3 C-0.96 3 -4.92 3 -9 3 C-7 1 -7 1 -3.9375 0.9375 C-2.4834375 0.9684375 -2.4834375 0.9684375 -1 1 C-0.67 0.67 -0.34 0.34 0 0 Z " fill="#2E5936" transform="translate(194,8)"/>
<path d="M0 0 C1.65 0 3.3 0 5 0 C1.25 3 1.25 3 -1 3 C-1.66 4.65 -2.32 6.3 -3 8 C-3.66 7.01 -4.32 6.02 -5 5 C-4.34 4.01 -3.68 3.02 -3 2 C-2.01 2 -1.02 2 0 2 C0 1.34 0 0.68 0 0 Z " fill="#15311A" transform="translate(41,3)"/>
<path d="M0 0 C2.31 0 4.62 0 7 0 C2.25 4.875 2.25 4.875 0 6 C0 4.02 0 2.04 0 0 Z " fill="#E1ECE3" transform="translate(36,0)"/>
<path d="M0 0 C4 4.625 4 4.625 4 8 C2.68 7.67 1.36 7.34 0 7 C0 4.69 0 2.38 0 0 Z " fill="#568761" transform="translate(100,112)"/>
<path d="M0 0 C0.33 0 0.66 0 1 0 C1 3.3 1 6.6 1 10 C0.01 9.01 -0.98 8.02 -2 7 C-1.56521739 1.56521739 -1.56521739 1.56521739 0 0 Z " fill="#40824C" transform="translate(99,110)"/>
<path d="M0 0 C0.66 0 1.32 0 2 0 C2.33 1.32 2.66 2.64 3 4 C-1.455 4.495 -1.455 4.495 -6 5 C-5.01 4.67 -4.02 4.34 -3 4 C-3 3.34 -3 2.68 -3 2 C-2.01 2 -1.02 2 0 2 C0 1.34 0 0.68 0 0 Z " fill="#C3E8CD" transform="translate(142,83)"/>
<path d="M0 0 C0.33 0.99 0.66 1.98 1 3 C0.34 3 -0.32 3 -1 3 C-1.66 5.64 -2.32 8.28 -3 11 C-4.10359366 6.58562534 -3.72502467 5.08558475 -2 1 C-1.34 0.67 -0.68 0.34 0 0 Z " fill="#D6EBDA" transform="translate(134,153)"/>
<path d="M0 0 C0.33 0 0.66 0 1 0 C1.09765625 6.15234375 1.09765625 6.15234375 1 8 C0 9 0 9 -2.5625 9.0625 C-3.366875 9.041875 -4.17125 9.02125 -5 9 C-4.0409375 7.88625 -4.0409375 7.88625 -3.0625 6.75 C-1.21666593 4.2888879 -0.43930826 2.96533074 0 0 Z " fill="#B1CFB6" transform="translate(185,147)"/>
<path d="M0 0 C0.33 0 0.66 0 1 0 C1.33 1.98 1.66 3.96 2 6 C1.0409375 6.37125 1.0409375 6.37125 0.0625 6.75 C-2.18741541 7.81562433 -2.18741541 7.81562433 -2.75 10.125 C-2.8325 10.74375 -2.915 11.3625 -3 12 C-4 10 -4 10 -3.22265625 7.6171875 C-2.83980469 6.71226562 -2.45695313 5.80734375 -2.0625 4.875 C-1.68222656 3.96492187 -1.30195313 3.05484375 -0.91015625 2.1171875 C-0.60980469 1.41851562 -0.30945313 0.71984375 0 0 Z " fill="#558A61" transform="translate(144,130)"/>
<path d="M0 0 C0.66 0 1.32 0 2 0 C1.45773019 3.79588866 -0.20127563 5.47211993 -3 8 C-2.25 2.25 -2.25 2.25 0 0 Z " fill="#437B4F" transform="translate(152,115)"/>
<path d="M0 0 C2.475 0.495 2.475 0.495 5 1 C4.67 3.64 4.34 6.28 4 9 C1.3144406 6.3144406 0.93950026 3.62378672 0 0 Z " fill="#DAF0E1" transform="translate(74,55)"/>
<path d="M0 0 C0.33 0.66 0.66 1.32 1 2 C0.67 2.99 0.34 3.98 0 5 C-2.97 4.505 -2.97 4.505 -6 4 C-3.94766315 1.7522025 -2.99332739 0.9977758 0 0 Z " fill="#618767" transform="translate(193,160)"/>
<path d="M0 0 C1.98 0 3.96 0 6 0 C6.33 0.66 6.66 1.32 7 2 C5.68 1.67 4.36 1.34 3 1 C2.67 2.65 2.34 4.3 2 6 C1.34 5.67 0.68 5.34 0 5 C0 3.35 0 1.7 0 0 Z " fill="#E1F8E7" transform="translate(163,156)"/>
<path d="M0 0 C1.32 1.65 2.64 3.3 4 5 C3.67 5.66 3.34 6.32 3 7 C1.68 6.34 0.36 5.68 -1 5 C-0.67 3.35 -0.34 1.7 0 0 Z " fill="#4A7152" transform="translate(56,19)"/>
<path d="M0 0 C0 1.65 0 3.3 0 5 C-0.99 5.33 -1.98 5.66 -3 6 C-3.99 4.35 -4.98 2.7 -6 1 C-3 0 -3 0 0 0 Z " fill="#4F7F57" transform="translate(198,136)"/>
<path d="M0 0 C2.5654594 2.5654594 2.54046087 4.47686668 3 8 C2.34 8 1.68 8 1 8 C0.67 8.99 0.34 9.98 0 11 C0 7.37 0 3.74 0 0 Z " fill="#558D5E" transform="translate(96,102)"/>
<path d="M0 0 C0.66 0.33 1.32 0.66 2 1 C0.68 4.3 -0.64 7.6 -2 11 C-3.28485596 5.86057616 -2.22194431 4.62164416 0 0 Z " fill="#D3F1D8" transform="translate(174,56)"/>
<path d="M0 0 C2.64 0.66 5.28 1.32 8 2 C5.42786866 3.61949011 4.32330841 4.04408751 1.25 3.625 C0.5075 3.41875 -0.235 3.2125 -1 3 C-0.67 2.01 -0.34 1.02 0 0 Z " fill="#438156" transform="translate(166,152)"/>
<path d="M0 0 C0.99 0.495 0.99 0.495 2 1 C2.73075648 3.3140622 3.40138258 5.64828869 4 8 C3.34 8 2.68 8 2 8 C2 7.34 2 6.68 2 6 C1.34 6 0.68 6 0 6 C0 4.02 0 2.04 0 0 Z " fill="#598762" transform="translate(86,82)"/>
</svg>
