<?xml version="1.0" encoding="UTF-8"?>
<svg version="1.1" xmlns="http://www.w3.org/2000/svg" width="204" height="208">
<path d="M0 0 C67.32 0 134.64 0 204 0 C204 68.64 204 137.28 204 208 C136.68 208 69.36 208 0 208 C0 139.36 0 70.72 0 0 Z " fill="#010101" transform="translate(0,0)"/>
<path d="M0 0 C4.55555556 0.55555556 4.55555556 0.55555556 6 2 C6.16010481 4.73701178 6.25946828 7.4516759 6.31640625 10.19140625 C6.33718735 11.01124496 6.35796844 11.83108368 6.37937927 12.67576599 C6.44496494 15.30458901 6.50380126 17.93351504 6.5625 20.5625 C6.60567667 22.34050561 6.64929067 24.11850065 6.69335938 25.89648438 C6.80148171 30.26421872 6.90048728 34.63202691 7 39 C16.57 39 26.14 39 36 39 C36.04898438 36.35226563 36.09796875 33.70453125 36.1484375 30.9765625 C36.20241457 28.4182357 36.25973485 25.86000421 36.31738281 23.30175781 C36.35571565 21.52090527 36.39056089 19.73997416 36.421875 17.95898438 C36.46743271 15.40205766 36.52544107 12.8456739 36.5859375 10.2890625 C36.60326431 9.09055161 36.60326431 9.09055161 36.62094116 7.86782837 C36.77225659 2.22774341 36.77225659 2.22774341 39 0 C43.55555556 0.55555556 43.55555556 0.55555556 45 2 C45.10571371 4.57562419 45.14678123 7.12457175 45.14526367 9.70092773 C45.14862228 10.50740753 45.1519809 11.31388733 45.15544128 12.14480591 C45.16498015 14.8244173 45.16689586 17.50396641 45.16796875 20.18359375 C45.17117928 22.03825405 45.17454319 23.8929141 45.17805481 25.74757385 C45.18405343 29.64072253 45.18589396 33.53384898 45.18530273 37.42700195 C45.18520107 42.42538678 45.19885475 47.42362969 45.21607494 52.42198086 C45.22717182 56.25401977 45.22922266 60.08602413 45.22869301 63.91807747 C45.22987657 65.76133781 45.23431924 67.60459894 45.24202538 69.44784355 C45.25177886 72.02189052 45.24896576 74.59562618 45.24291992 77.16967773 C45.24853943 77.93702744 45.25415894 78.70437714 45.25994873 79.49497986 C45.22831554 84.77168446 45.22831554 84.77168446 43 87 C38.44444444 86.44444444 38.44444444 86.44444444 37 85 C36.85229385 82.34738033 36.76500765 79.71744193 36.71875 77.0625 C36.70034058 76.267229 36.68193115 75.47195801 36.66296387 74.65258789 C36.58401876 71.23565571 36.51645649 67.81851815 36.44775391 64.40136719 C36.3961364 61.91330881 36.33884205 59.42542606 36.28125 56.9375 C36.26767456 56.15834229 36.25409912 55.37918457 36.2401123 54.57641602 C36.48412371 50.98966245 36.48412371 50.98966245 35 48 C33.01242972 47.90016942 31.0213248 47.86919247 29.03125 47.8671875 C27.21560547 47.86525391 27.21560547 47.86525391 25.36328125 47.86328125 C24.08839844 47.86714844 22.81351563 47.87101562 21.5 47.875 C20.22511719 47.87113281 18.95023438 47.86726563 17.63671875 47.86328125 C16.42628906 47.86457031 15.21585938 47.86585937 13.96875 47.8671875 C12.84919922 47.86831543 11.72964844 47.86944336 10.57617188 47.87060547 C8.06858198 47.70783632 8.06858198 47.70783632 7 49 C6.83982834 51.80976518 6.74049466 54.59773596 6.68359375 57.41015625 C6.66281265 58.25219101 6.64203156 59.09422577 6.62062073 59.96177673 C6.55503188 62.66193179 6.49619724 65.36218717 6.4375 68.0625 C6.39432363 69.88868241 6.35070964 71.71485454 6.30664062 73.54101562 C6.19934106 78.02723992 6.09810034 82.5135655 6 87 C3.125 87.125 3.125 87.125 0 87 C-2.51622535 84.48377465 -2.24332854 82.93911062 -2.27105713 79.50608826 C-2.26700867 78.7403096 -2.26296021 77.97453094 -2.25878906 77.18554688 C-2.2622937 76.37892105 -2.26579834 75.57229523 -2.26940918 74.7412262 C-2.27823313 72.06698068 -2.27237505 69.39299834 -2.265625 66.71875 C-2.26697146 64.86551869 -2.26891183 63.01228772 -2.27142334 61.15905762 C-2.2743755 57.27185712 -2.27007401 53.38474843 -2.26074219 49.49755859 C-2.2493476 44.50703372 -2.25590658 39.51672395 -2.26788712 34.52620697 C-2.27510324 30.6984494 -2.27281893 26.87074309 -2.26763153 23.04298401 C-2.26629435 21.20251948 -2.26794515 19.36205034 -2.27259064 17.52159119 C-2.27765182 14.95241918 -2.26995152 12.38359884 -2.25878906 9.81445312 C-2.26283752 9.04867447 -2.26688599 8.28289581 -2.27105713 7.49391174 C-2.22852852 2.22852852 -2.22852852 2.22852852 0 0 Z " fill="#E8E8E8" transform="translate(57,59)"/>
<path d="M0 0 C1.11877281 0.00607269 1.11877281 0.00607269 2.26014709 0.01226807 C3.41052208 0.00939789 3.41052208 0.00939789 4.58413696 0.00646973 C6.20734485 0.00510783 7.83056361 0.00880462 9.45375061 0.01715088 C11.93829365 0.02783604 14.42211122 0.01726364 16.90663147 0.00445557 C18.48280494 0.00577745 20.05897796 0.00834043 21.63514709 0.01226807 C22.37897141 0.0082196 23.12279572 0.00417114 23.88916016 0 C27.6401276 0.03407175 29.3131763 0.14397504 32.51405334 2.27789307 C31.63905334 6.15289307 31.63905334 6.15289307 30.51405334 7.27789307 C28.38159852 7.42428239 26.24459997 7.50535119 24.10780334 7.55914307 C22.80713928 7.59652588 21.50647522 7.63390869 20.16639709 7.67242432 C18.08585725 7.72609978 16.00527952 7.77811246 13.92469788 7.83013916 C11.92312964 7.88177725 9.9217111 7.93911995 7.92030334 7.99664307 C6.11529358 8.04208252 6.11529358 8.04208252 4.27381897 8.08843994 C1.60491147 7.96802866 1.60491147 7.96802866 0.51405334 9.27789307 C0.34738668 11.77789307 0.34738668 11.77789307 0.51405334 14.27789307 C2.36383356 16.12767329 5.40544522 15.47441615 7.88514709 15.52398682 C9.18129944 15.55685791 10.47745178 15.589729 11.81288147 15.62359619 C13.88452932 15.67105352 15.95614855 15.71548005 18.02796936 15.75469971 C20.02221437 15.79435192 22.0161989 15.84648843 24.01014709 15.89898682 C25.80730164 15.93657104 25.80730164 15.93657104 27.64076233 15.97491455 C30.51405334 16.27789307 30.51405334 16.27789307 32.51405334 18.27789307 C32.77284241 20.21734619 32.77284241 20.21734619 32.77967834 22.55914307 C32.78354553 23.82177979 32.78354553 23.82177979 32.78749084 25.10992432 C32.77975647 25.990354 32.77202209 26.87078369 32.76405334 27.77789307 C32.77565491 29.0985376 32.77565491 29.0985376 32.78749084 30.44586182 C32.78491272 31.28761963 32.78233459 32.12937744 32.77967834 32.99664307 C32.77742249 33.76943604 32.77516663 34.542229 32.77284241 35.33843994 C32.51405334 37.27789307 32.51405334 37.27789307 30.51405334 39.27789307 C27.81270012 39.4776304 25.21608123 39.5577088 22.51405334 39.54351807 C21.72256897 39.54543152 20.93108459 39.54734497 20.11561584 39.54931641 C18.44113345 39.55067824 16.76664049 39.54698188 15.09217834 39.53863525 C12.52422953 39.52793547 9.95698031 39.53853032 7.38905334 39.55133057 C5.7640518 39.55000897 4.13905068 39.54744658 2.51405334 39.54351807 C1.35776428 39.54959076 1.35776428 39.54959076 0.17811584 39.55578613 C-5.25602533 39.50781439 -5.25602533 39.50781439 -7.48594666 37.27789307 C-7.15594666 35.62789307 -6.82594666 33.97789307 -6.48594666 32.27789307 C8.36405334 31.78289307 8.36405334 31.78289307 23.51405334 31.27789307 C23.51405334 29.29789307 23.51405334 27.31789307 23.51405334 25.27789307 C21.69160565 23.45544537 18.81464553 24.08261343 16.36170959 24.03179932 C14.48515686 23.98249268 14.48515686 23.98249268 12.57069397 23.93218994 C9.91192473 23.87108375 7.25306533 23.81378051 4.59413147 23.76031494 C3.34180725 23.72615479 2.08948303 23.69199463 0.79920959 23.65679932 C-0.3569989 23.63174316 -1.5132074 23.60668701 -2.70445251 23.58087158 C-5.48594666 23.27789307 -5.48594666 23.27789307 -7.48594666 21.27789307 C-7.74473572 19.33843994 -7.74473572 19.33843994 -7.75157166 16.99664307 C-7.75414978 16.15488525 -7.75672791 15.31312744 -7.75938416 14.44586182 C-7.74778259 13.12521729 -7.74778259 13.12521729 -7.73594666 11.77789307 C-7.74368103 10.89746338 -7.75141541 10.01703369 -7.75938416 9.10992432 C-7.75680603 8.2681665 -7.75422791 7.42640869 -7.75157166 6.55914307 C-7.7493158 5.7863501 -7.74705994 5.01355713 -7.74473572 4.21734619 C-7.13070453 -0.38441204 -3.8773831 0.03538073 0 0 Z " fill="#F2F2F2" transform="translate(116.48594665527344,58.72210693359375)"/>
<path d="M0 0 C2.5 0.125 2.5 0.125 3.5 1.125 C3.64624162 3.18444378 3.72741837 5.24857232 3.78125 7.3125 C3.81863281 8.56804687 3.85601562 9.82359375 3.89453125 11.1171875 C3.94820561 13.12529803 4.00021886 15.13344777 4.05224609 17.14160156 C4.10388807 19.07367472 4.16122915 21.00559293 4.21875 22.9375 C4.24904297 24.09894531 4.27933594 25.26039063 4.31054688 26.45703125 C4.20148037 29.04489537 4.20148037 29.04489537 5.5 30.125 C7.13472882 30.21200342 8.77314055 30.23201063 10.41015625 30.22265625 C11.89418945 30.21782227 11.89418945 30.21782227 13.40820312 30.21289062 C14.44912109 30.20451172 15.49003906 30.19613281 16.5625 30.1875 C17.60728516 30.18298828 18.65207031 30.17847656 19.72851562 30.17382812 C22.3190666 30.16199913 24.90950559 30.14551689 27.5 30.125 C28.49 26.66 28.49 26.66 29.5 23.125 C31.875 22.5 31.875 22.5 34.5 22.125 C37.19101234 24.81601234 36.79887549 26.31575946 36.8125 30.0625 C36.82925781 31.12339844 36.84601563 32.18429688 36.86328125 33.27734375 C36.5 36.125 36.5 36.125 35.46972656 37.78027344 C32.40605582 39.87183249 29.20145791 39.53261195 25.62109375 39.48828125 C24.46928368 39.48902901 24.46928368 39.48902901 23.29420471 39.48979187 C21.672754 39.48745333 20.05129952 39.47773769 18.42993164 39.46118164 C15.94319357 39.4375541 13.45752517 39.44062623 10.97070312 39.44726562 C9.39582692 39.44168994 7.82095524 39.43458075 6.24609375 39.42578125 C5.50024521 39.42669266 4.75439667 39.42760406 3.98594666 39.42854309 C-1.26895709 39.35604291 -1.26895709 39.35604291 -3.5 37.125 C-3.6874551 34.41189351 -3.75565406 31.80270915 -3.73046875 29.08984375 C-3.73001053 28.2959877 -3.72955231 27.50213165 -3.7290802 26.68421936 C-3.72605765 25.00552883 -3.71817125 23.3268411 -3.70581055 21.64819336 C-3.68754885 19.06939842 -3.68530087 16.49096223 -3.68554688 13.91210938 C-3.68063196 12.28385104 -3.67480376 10.65559516 -3.66796875 9.02734375 C-3.66685593 8.25132309 -3.6657431 7.47530243 -3.66459656 6.67576599 C-3.60657501 0.18032875 -3.60657501 0.18032875 0 0 Z " fill="#ECECEC" transform="translate(112.5,107.875)"/>
<path d="M0 0 C1.16257324 0.01047363 2.32514648 0.02094727 3.52294922 0.03173828 C5.40820312 0.04140625 5.40820312 0.04140625 7.33154297 0.05126953 C9.30960938 0.07640625 9.30960938 0.07640625 11.32763672 0.10205078 C12.66747393 0.11208096 14.00731823 0.12120674 15.34716797 0.12939453 C18.63250244 0.15303003 21.91748137 0.18597844 25.20263672 0.22705078 C25.20263672 0.55705078 25.20263672 0.88705078 25.20263672 1.22705078 C24.05263184 1.23321411 24.05263184 1.23321411 22.87939453 1.23950195 C19.40302627 1.27241213 15.92841651 1.34305531 12.45263672 1.41455078 C11.24607422 1.42035156 10.03951172 1.42615234 8.79638672 1.43212891 C7.05615234 1.47563477 7.05615234 1.47563477 5.28076172 1.52001953 C4.21245117 1.53572998 3.14414063 1.55144043 2.04345703 1.56762695 C-1.68528566 2.43315927 -2.73510095 4.10102656 -4.79736328 7.22705078 C-4.92236328 4.85205078 -4.92236328 4.85205078 -4.79736328 2.22705078 C-2.79736328 0.22705078 -2.79736328 0.22705078 0 0 Z " fill="#5F5F5F" transform="translate(120.79736328125,65.77294921875)"/>
<path d="M0 0 C1.67542976 0.28604898 3.34385343 0.61781233 5 1 C5 2.65 5 4.3 5 6 C3.34385343 6.38218767 1.67542976 6.71395102 0 7 C-1 6 -1 6 -1.125 3.5 C-1 1 -1 1 0 0 Z " fill="#E9E9E9" transform="translate(143,108)"/>
</svg>
